<svg xmlns="http://www.w3.org/2000/svg" width="143.06" height="40.65" viewBox="0 0 143.06 40.65">
  <g>
    <rect width="143.06" height="40.65" rx="20.32" fill="#fff"/>
    <g>
      <path d="M21.34,25.17c-.16-.13-.23-.23-.08-.49l.59-1a.37.37,0,0,1,.56-.12,4,4,0,0,0,2.49,1,1.37,1.37,0,0,0,1.5-1.27c0-.84-.7-1.42-2.09-2-1.55-.62-3.1-1.61-3.1-3.56,0-1.47,1.09-3.17,3.71-3.17a5.79,5.79,0,0,1,3.3,1.11.42.42,0,0,1,.1.54l-.63.94a.44.44,0,0,1-.58.2,4.28,4.28,0,0,0-2.29-.91c-.94,0-1.45.53-1.45,1.16s.61,1.3,1.95,1.85c1.6.64,3.44,1.6,3.44,3.72,0,1.7-1.46,3.27-3.79,3.27A5.13,5.13,0,0,1,21.34,25.17Z" fill="#0085e1"/>
      <path d="M30,20.52a.36.36,0,0,1-.35-.36V19a.35.35,0,0,1,.35-.37h.74V16.56a.37.37,0,0,1,.36-.36h1.35a.35.35,0,0,1,.35.36v2.11H34.6A.36.36,0,0,1,35,19v1.12a.38.38,0,0,1-.37.36H32.82v3.07c0,.74.33,1,.81,1a3.17,3.17,0,0,0,1-.18.29.29,0,0,1,.43.2l.22,1a.38.38,0,0,1-.22.45,4,4,0,0,1-1.75.4,2.43,2.43,0,0,1-2.52-2.74V20.52Z" fill="#0085e1"/>
      <path d="M39.17,21.48a5.68,5.68,0,0,1,1.47.21,1.3,1.3,0,0,0-1.43-1.43,6.5,6.5,0,0,0-1.77.28c-.24.08-.39-.1-.43-.33l-.16-.86a.34.34,0,0,1,.25-.46,7.19,7.19,0,0,1,2.22-.38c2.21,0,3.25,1.24,3.25,3.31V26a.35.35,0,0,1-.39.35A1.13,1.13,0,0,1,41,25.59a3.39,3.39,0,0,1-2.33.89,2.43,2.43,0,0,1-2.57-2.61C36.14,22.52,37.25,21.48,39.17,21.48Zm0,3.46a1.64,1.64,0,0,0,1.37-.81V23a3,3,0,0,0-1.12-.23c-.87,0-1.35.41-1.35,1.09A1,1,0,0,0,39.22,24.94Z" fill="#0085e1"/>
      <path d="M44.57,19a.35.35,0,0,1,.39-.34,1.17,1.17,0,0,1,1.21,1,2.65,2.65,0,0,1,2.13-1.14c.9,0,1.65.25,1.43.74l-.49,1.12a.33.33,0,0,1-.45.17,1.53,1.53,0,0,0-.71-.15,1.66,1.66,0,0,0-1.45.79v4.75c0,.28-.18.36-.43.36H44.93a.37.37,0,0,1-.36-.36Z" fill="#0085e1"/>
      <path d="M51,20.52a.36.36,0,0,1-.34-.36V19a.35.35,0,0,1,.34-.37h.75V16.56a.37.37,0,0,1,.36-.36h1.35a.35.35,0,0,1,.35.36v2.11h1.78a.35.35,0,0,1,.36.37v1.12a.37.37,0,0,1-.36.36H53.78v3.07c0,.74.33,1,.81,1a3.17,3.17,0,0,0,1-.18.29.29,0,0,1,.43.2l.21,1a.37.37,0,0,1-.21.45,4,4,0,0,1-1.75.4,2.43,2.43,0,0,1-2.52-2.74V20.52Z" fill="#0085e1"/>
      <path d="M62.23,20.52h-.79a.37.37,0,0,1-.37-.36V19a.35.35,0,0,1,.37-.37h.79v-.9c0-2,1.07-3.19,3.08-3.19a3.66,3.66,0,0,1,2.25.75.32.32,0,0,1,.08.42l-.58,1a.33.33,0,0,1-.46.1,2.51,2.51,0,0,0-1.19-.4c-1,0-1.12.52-1.12,1.31v.9h2.08a.35.35,0,0,1,.36.37v1.12a.36.36,0,0,1-.36.36H64.29v5.41a.36.36,0,0,1-.36.36H62.59a.36.36,0,0,1-.36-.36Z" fill="#0085e1"/>
      <path d="M68,19c0-.18.13-.34.4-.34a1.16,1.16,0,0,1,1.2,1,2.65,2.65,0,0,1,2.13-1.14c.91,0,1.65.25,1.43.74l-.49,1.12a.33.33,0,0,1-.45.17,1.53,1.53,0,0,0-.71-.15,1.68,1.68,0,0,0-1.45.79v4.75c0,.28-.18.36-.43.36H68.33a.37.37,0,0,1-.36-.36Z" fill="#0085e1"/>
      <path d="M77.46,18.51A3.42,3.42,0,0,1,81,22c0,.11,0,.38,0,.49a.39.39,0,0,1-.36.35H75.68a1.84,1.84,0,0,0,1.9,1.77,2.5,2.5,0,0,0,1.63-.57c.18-.14.38-.16.5,0l.64.86a.33.33,0,0,1,0,.5,4.31,4.31,0,0,1-2.84,1,3.86,3.86,0,0,1-3.86-4A3.85,3.85,0,0,1,77.46,18.51Zm1.42,3a1.39,1.39,0,0,0-1.46-1.32,1.51,1.51,0,0,0-1.62,1.32Z" fill="#0085e1"/>
      <path d="M85.91,18.51A3.42,3.42,0,0,1,89.41,22c0,.11,0,.38,0,.49a.39.39,0,0,1-.37.35H84.13A1.84,1.84,0,0,0,86,24.65a2.5,2.5,0,0,0,1.63-.57c.18-.14.38-.16.5,0l.64.86a.33.33,0,0,1,0,.5,4.31,4.31,0,0,1-2.84,1,3.86,3.86,0,0,1-3.86-4A3.85,3.85,0,0,1,85.91,18.51Zm1.42,3a1.39,1.39,0,0,0-1.47-1.32,1.51,1.51,0,0,0-1.61,1.32Z" fill="#0085e1"/>
      <path d="M94.69,20.52a.35.35,0,0,1-.34-.36V19a.34.34,0,0,1,.34-.37h.74V16.56a.38.38,0,0,1,.37-.36h1.35a.35.35,0,0,1,.35.36v2.11h1.78a.35.35,0,0,1,.36.37v1.12a.37.37,0,0,1-.36.36H97.5v3.07c0,.74.33,1,.8,1a3.23,3.23,0,0,0,1-.18.29.29,0,0,1,.43.2l.21,1a.37.37,0,0,1-.21.45,4,4,0,0,1-1.75.4,2.44,2.44,0,0,1-2.53-2.74V20.52Z" fill="#0085e1"/>
      <path d="M101.29,19c0-.18.13-.34.4-.34a1.16,1.16,0,0,1,1.2,1A2.67,2.67,0,0,1,105,18.51c.91,0,1.65.25,1.44.74l-.5,1.12a.33.33,0,0,1-.45.17,1.52,1.52,0,0,0-.7-.15,1.68,1.68,0,0,0-1.46.79v4.75c0,.28-.18.36-.43.36h-1.26a.37.37,0,0,1-.37-.36Z" fill="#0085e1"/>
      <path d="M107.34,16.05a1.31,1.31,0,0,1,2.62,0,1.31,1.31,0,1,1-2.62,0Zm.3,3a.37.37,0,0,1,.36-.37h1.34a.37.37,0,0,1,.36.37v6.89a.37.37,0,0,1-.36.36H108a.37.37,0,0,1-.36-.36Z" fill="#0085e1"/>
      <path d="M114.24,21.48a5.68,5.68,0,0,1,1.47.21,1.3,1.3,0,0,0-1.43-1.43,6.5,6.5,0,0,0-1.77.28c-.25.08-.39-.1-.43-.33l-.16-.86a.34.34,0,0,1,.25-.46,7.19,7.19,0,0,1,2.22-.38c2.21,0,3.25,1.24,3.25,3.31V26a.35.35,0,0,1-.39.35,1.13,1.13,0,0,1-1.14-.77,3.41,3.41,0,0,1-2.33.89,2.43,2.43,0,0,1-2.57-2.61C111.21,22.52,112.31,21.48,114.24,21.48Zm.05,3.46a1.64,1.64,0,0,0,1.37-.81V23a3,3,0,0,0-1.12-.23c-.87,0-1.35.41-1.35,1.09A1,1,0,0,0,114.29,24.94Z" fill="#0085e1"/>
      <path d="M119.64,15.11a.4.4,0,0,1,.37-.36h1.33a.39.39,0,0,1,.37.36V25.93a.37.37,0,0,1-.37.36H120a.38.38,0,0,1-.37-.36Z" fill="#0085e1"/>
    </g>
  </g>
</svg>
