<svg xmlns="http://www.w3.org/2000/svg" width="300" height="600" viewBox="0 0 300 600">
  <g>
    <rect width="300" height="600" fill="none"/>
    <g opacity="0.9">
      <g>
        <path d="M75.76,576.45l.57.5-.09-.76c0-.09.12-.16.24-.16s.26.07.25.16l-.07.77.55-.51c.06-.05.2,0,.27.11s.1.25,0,.3l-.69.4.72.41c.08,0,0,.19,0,.29s-.22.17-.28.11l-.57-.49.09.76c0,.09-.13.16-.24.16s-.26-.07-.25-.16l.07-.77-.55.5c-.06.06-.2,0-.27-.1s-.1-.26,0-.3l.69-.41-.72-.4c-.08-.05,0-.19,0-.29S75.7,576.4,75.76,576.45Z"/>
        <path d="M79.23,576.12a.17.17,0,0,1,.17-.17H83a.17.17,0,0,1,.17.17v.26a.17.17,0,0,1-.17.17h-3v2.2h2.59a.18.18,0,0,1,.17.17v.26a.17.17,0,0,1-.17.17H79.92v2.3h3a.17.17,0,0,1,.17.17v.26a.17.17,0,0,1-.17.17H79.4a.17.17,0,0,1-.17-.17Z"/>
        <path d="M83.91,582l1.39-1.84L84,578.36c-.1-.13,0-.27.13-.27h.39a.19.19,0,0,1,.16.08l1.05,1.44h0l1.08-1.44a.21.21,0,0,1,.16-.08h.39c.17,0,.23.14.13.27l-1.35,1.76L87.47,582c.1.14,0,.27-.14.27H87a.22.22,0,0,1-.16-.09L85.7,580.6h0l-1.13,1.57a.19.19,0,0,1-.16.08h-.34C83.87,582.25,83.81,582.11,83.91,582Z"/>
        <path d="M90.28,578a1.93,1.93,0,0,1,1.51.69.19.19,0,0,1,0,.29l-.15.14c-.13.12-.21,0-.29-.06a1.28,1.28,0,0,0-1-.45,1.58,1.58,0,0,0,0,3.14,1.34,1.34,0,0,0,1.13-.6c.12-.13.23-.1.35,0l0,.06c.09.09.13.18.06.28a1.91,1.91,0,0,1-1.57.84,2.06,2.06,0,0,1-2.1-2.17A2.11,2.11,0,0,1,90.28,578Z"/>
        <path d="M93,576.15a.21.21,0,0,1,.2-.2h.27a.22.22,0,0,1,.2.2v5.9a.21.21,0,0,1-.2.2h-.27a.2.2,0,0,1-.2-.2Z"/>
        <path d="M95.06,578.29a.21.21,0,0,1,.2-.2h.27a.21.21,0,0,1,.2.2v2.25c0,.83.27,1.21.87,1.21a1.52,1.52,0,0,0,1.18-.61v-2.85a.2.2,0,0,1,.19-.2h.28a.21.21,0,0,1,.19.2v3.84a.15.15,0,0,1-.16.16c-.27,0-.42-.2-.44-.48a1.7,1.7,0,0,1-1.29.54c-1.2,0-1.49-.72-1.49-1.82Z"/>
        <path d="M101.56,578a2.58,2.58,0,0,1,1.15.26v-2.11a.21.21,0,0,1,.2-.2h.25a.22.22,0,0,1,.21.2v6a.16.16,0,0,1-.16.16c-.27,0-.41-.2-.45-.47a1.88,1.88,0,0,1-3.17-1.66A2,2,0,0,1,101.56,578Zm0,3.75a1.53,1.53,0,0,0,1.18-.67v-2.24a2.79,2.79,0,0,0-1.06-.23,1.42,1.42,0,0,0-1.39,1.56A1.45,1.45,0,0,0,101.53,581.75Z"/>
        <path d="M106.53,578a1.83,1.83,0,0,1,1.88,1.89,2.46,2.46,0,0,1,0,.26.2.2,0,0,1-.19.18h-3a1.46,1.46,0,0,0,1.36,1.42,1.92,1.92,0,0,0,1.12-.34c.15-.1.21-.14.32,0l.11.16c.08.12.11.17,0,.28a2.53,2.53,0,0,1-1.52.48,2.18,2.18,0,0,1,0-4.35Zm1.22,1.79a1.22,1.22,0,0,0-1.22-1.18,1.36,1.36,0,0,0-1.34,1.18Z"/>
        <path d="M109.29,581.85a.14.14,0,0,1,0-.18l.13-.24c0-.1.12-.13.24,0a1.67,1.67,0,0,0,1,.37c.42,0,.71-.2.71-.52s-.33-.56-.93-.86-1.18-.57-1.18-1.28a1.15,1.15,0,0,1,1.29-1.09,2.14,2.14,0,0,1,1.19.33.21.21,0,0,1,0,.28l-.09.17a.21.21,0,0,1-.29.07,1.62,1.62,0,0,0-.85-.24c-.46,0-.62.26-.62.46,0,.36.29.5.8.73.72.34,1.34.61,1.34,1.36a1.28,1.28,0,0,1-1.41,1.19A2.06,2.06,0,0,1,109.29,581.85Z"/>
        <path d="M115.55,578.67h-.67a.2.2,0,0,1-.2-.2v-.18a.19.19,0,0,1,.2-.2h.67v-.65c0-1,.48-1.58,1.38-1.58a1.67,1.67,0,0,1,1.15.43.2.2,0,0,1,0,.24l-.17.21c-.07.1-.14.09-.26,0a1.16,1.16,0,0,0-.76-.29c-.48,0-.71.35-.71,1v.65h1.24a.19.19,0,0,1,.19.2v.18a.2.2,0,0,1-.19.2h-1.24v3.38a.2.2,0,0,1-.19.2h-.27a.2.2,0,0,1-.2-.2Z"/>
        <path d="M118.54,578.22a.15.15,0,0,1,.16-.16c.26,0,.4.19.43.46a1.74,1.74,0,0,1,1.28-.52c.32,0,.83,0,.73.34l-.12.32c0,.13-.14.14-.24.1a1,1,0,0,0-.45-.12,1.33,1.33,0,0,0-1.13.53v2.88a.21.21,0,0,1-.19.2h-.27a.2.2,0,0,1-.2-.2Z"/>
        <path d="M123.63,578a1.83,1.83,0,0,1,1.89,1.89,2.46,2.46,0,0,1,0,.26.2.2,0,0,1-.19.18h-3a1.47,1.47,0,0,0,1.36,1.42,2,2,0,0,0,1.13-.34c.14-.1.21-.14.31,0l.11.16c.08.12.12.17,0,.28a2.59,2.59,0,0,1-1.53.48,2.18,2.18,0,0,1,0-4.35Zm1.22,1.79a1.21,1.21,0,0,0-1.22-1.18,1.36,1.36,0,0,0-1.34,1.18Z"/>
        <path d="M126.44,576.54a.49.49,0,0,1,.48-.51.5.5,0,0,1,.5.51.49.49,0,0,1-.5.48A.48.48,0,0,1,126.44,576.54Zm.17,1.75a.21.21,0,0,1,.2-.2h.27a.21.21,0,0,1,.19.2v3.76a.2.2,0,0,1-.19.2h-.27a.2.2,0,0,1-.2-.2Z"/>
        <path d="M132.2,582.28a1.72,1.72,0,0,1-1.82,1.94,2.34,2.34,0,0,1-1.45-.54.19.19,0,0,1,0-.24l.18-.26c.06-.1.17-.1.27,0a1.62,1.62,0,0,0,1,.44c.66,0,1.16-.36,1.16-1.33V582a2,2,0,0,1-1.15.37,2.19,2.19,0,0,1,0-4.35,2.15,2.15,0,0,1,1.25.43.43.43,0,0,1,.43-.37.15.15,0,0,1,.16.16Zm-1.72-.54a2,2,0,0,0,1.05-.34v-2.28a1.54,1.54,0,0,0-1.09-.5,1.42,1.42,0,0,0-1.35,1.54A1.46,1.46,0,0,0,130.48,581.74Z"/>
        <path d="M133.61,576.15a.21.21,0,0,1,.2-.2h.27a.21.21,0,0,1,.19.2v2.38a1.91,1.91,0,0,1,1.33-.53c1,0,1.5.64,1.5,1.86v2.19a.21.21,0,0,1-.2.2h-.28a.2.2,0,0,1-.2-.2v-2.19c0-.79-.23-1.25-.87-1.25a1.79,1.79,0,0,0-1.28.59v2.85a.21.21,0,0,1-.19.2h-.27a.2.2,0,0,1-.2-.2Z"/>
        <path d="M138.14,578.67a.2.2,0,0,1-.21-.2v-.18a.19.19,0,0,1,.21-.2h.55v-1.15a.22.22,0,0,1,.2-.2l.27,0a.19.19,0,0,1,.19.2v1.17h1.23a.19.19,0,0,1,.2.2v.18a.2.2,0,0,1-.2.2h-1.23v2.46a.55.55,0,0,0,.56.62,1.27,1.27,0,0,0,.64-.18c.16-.1.23,0,.26.08l.07.18c.06.13,0,.21-.07.27a2.11,2.11,0,0,1-1,.25,1.14,1.14,0,0,1-1.14-1.22v-2.46Z"/>
        <path d="M145.18,578.88h0l-.22-.24a1.88,1.88,0,0,1-.63-1.31,1.48,1.48,0,0,1,1.6-1.46,1.39,1.39,0,0,1,1.52,1.39c0,.8-.81,1.4-1.33,1.72l1.48,1.49a3.58,3.58,0,0,0,.36-1.6c0-.2.07-.21.21-.21h.22c.18,0,.17.14.17.21a4.28,4.28,0,0,1-.53,2l.86.87c.11.12.18.21,0,.41l-.11.1a.24.24,0,0,1-.38,0l-.76-.79a2.57,2.57,0,0,1-2,.9,1.61,1.61,0,0,1-1.74-1.65A2.16,2.16,0,0,1,145.18,578.88Zm.51,2.9a2,2,0,0,0,1.54-.76l-1.66-1.75a1.77,1.77,0,0,0-1,1.42A1.09,1.09,0,0,0,145.69,581.78Zm1.13-4.52a.94.94,0,0,0-1.88.08,1.47,1.47,0,0,0,.57,1l.2.2C146.12,578.32,146.82,577.91,146.82,577.26Z"/>
        <path d="M153.07,576a.17.17,0,0,1,.16-.13h.15a.18.18,0,0,1,.15.1l1.78,5h.05l1.75-5a.18.18,0,0,1,.16-.1h.14a.17.17,0,0,1,.16.13l1.16,6c0,.12,0,.21-.16.21h-.36a.19.19,0,0,1-.16-.12l-.8-4.64h0l-1.65,4.75a.18.18,0,0,1-.16.1h-.16a.18.18,0,0,1-.15-.1l-1.68-4.75h0l-.79,4.64a.17.17,0,0,1-.16.12h-.36a.15.15,0,0,1-.16-.21Z"/>
        <path d="M161.25,579.61a3.46,3.46,0,0,1,.89.14c0-.77-.36-1.14-.95-1.14a2.64,2.64,0,0,0-1,.24c-.1,0-.16,0-.19-.11l-.09-.24c0-.13,0-.18.12-.23a2.71,2.71,0,0,1,1.16-.27c1.07,0,1.56.63,1.56,1.75v2.38a.15.15,0,0,1-.16.16c-.27,0-.42-.21-.44-.49a1.81,1.81,0,0,1-1.31.55,1.26,1.26,0,0,1-1.29-1.36C159.58,580.2,160.18,579.61,161.25,579.61Zm-.26,2.14a1.45,1.45,0,0,0,1.14-.56v-.85a2.16,2.16,0,0,0-.88-.16c-.58,0-1,.28-1,.81A.72.72,0,0,0,161,581.75Z"/>
        <path d="M164.15,578.22a.15.15,0,0,1,.16-.16.43.43,0,0,1,.43.46A1.76,1.76,0,0,1,166,578c.32,0,.83,0,.73.34l-.12.32c0,.13-.14.14-.24.1a1,1,0,0,0-.45-.12,1.3,1.3,0,0,0-1.12.53v2.88a.21.21,0,0,1-.2.2h-.27a.2.2,0,0,1-.2-.2Z"/>
        <path d="M167.63,576.15a.21.21,0,0,1,.2-.2h.27a.21.21,0,0,1,.19.2v3.52l1.73-1.45a.41.41,0,0,1,.25-.13h.51a.14.14,0,0,1,.1.25l-1.92,1.6,2.06,2a.15.15,0,0,1-.11.26h-.51a.36.36,0,0,1-.21-.08l-1.9-2v1.89a.2.2,0,0,1-.19.2h-.27a.2.2,0,0,1-.2-.2Z"/>
        <path d="M173.54,578a1.83,1.83,0,0,1,1.88,1.89,2.46,2.46,0,0,1,0,.26.2.2,0,0,1-.19.18h-3a1.45,1.45,0,0,0,1.35,1.42,2,2,0,0,0,1.13-.34c.14-.1.21-.14.32,0l.1.16c.08.12.12.17,0,.28a2.53,2.53,0,0,1-1.52.48,2.18,2.18,0,0,1,0-4.35Zm1.21,1.79a1.21,1.21,0,0,0-1.21-1.18,1.37,1.37,0,0,0-1.35,1.18Z"/>
        <path d="M176.23,578.67a.2.2,0,0,1-.21-.2v-.18a.19.19,0,0,1,.21-.2h.55v-1.15a.22.22,0,0,1,.2-.2l.28,0a.19.19,0,0,1,.19.2v1.17h1.22a.2.2,0,0,1,.21.2v.18a.2.2,0,0,1-.21.2h-1.22v2.46a.55.55,0,0,0,.55.62,1.24,1.24,0,0,0,.64-.18c.16-.1.23,0,.26.08l.08.18c.05.13,0,.21-.08.27a2,2,0,0,1-1,.25,1.14,1.14,0,0,1-1.14-1.22v-2.46Z"/>
        <path d="M180.58,584.2a.21.21,0,0,1-.2.19h-.26a.2.2,0,0,1-.2-.19v-6a.15.15,0,0,1,.16-.16.42.42,0,0,1,.42.37,2.09,2.09,0,0,1,1.26-.43,2.19,2.19,0,0,1,0,4.35,2.08,2.08,0,0,1-1.15-.34Zm0-2.81a2,2,0,0,0,1,.36,1.46,1.46,0,0,0,1.39-1.59,1.42,1.42,0,0,0-1.34-1.55,1.57,1.57,0,0,0-1.1.5Z"/>
        <path d="M184.89,576.15a.21.21,0,0,1,.19-.2h.27a.22.22,0,0,1,.2.2v5.9a.21.21,0,0,1-.2.2h-.27a.2.2,0,0,1-.19-.2Z"/>
        <path d="M188.34,579.61a3.46,3.46,0,0,1,.89.14c0-.77-.35-1.14-.95-1.14a2.57,2.57,0,0,0-1,.24c-.11,0-.16,0-.2-.11l-.09-.24c0-.13,0-.18.13-.23a2.62,2.62,0,0,1,1.16-.27c1.06,0,1.55.63,1.55,1.75v2.38a.15.15,0,0,1-.16.16c-.27,0-.41-.21-.44-.49a1.81,1.81,0,0,1-1.31.55,1.26,1.26,0,0,1-1.28-1.36C186.68,580.2,187.27,579.61,188.34,579.61Zm-.26,2.14a1.45,1.45,0,0,0,1.15-.56v-.85a2.22,2.22,0,0,0-.89-.16c-.57,0-1,.28-1,.81A.72.72,0,0,0,188.08,581.75Z"/>
        <path d="M193.08,578a1.93,1.93,0,0,1,1.51.69.19.19,0,0,1,0,.29l-.15.14c-.13.12-.21,0-.29-.06a1.28,1.28,0,0,0-1.05-.45,1.58,1.58,0,0,0,0,3.14,1.34,1.34,0,0,0,1.13-.6c.12-.13.23-.1.35,0l.05.06c.09.09.13.18.06.28a1.91,1.91,0,0,1-1.57.84,2.06,2.06,0,0,1-2.1-2.17A2.11,2.11,0,0,1,193.08,578Z"/>
        <path d="M197.46,578a1.83,1.83,0,0,1,1.88,1.89,2.46,2.46,0,0,1,0,.26.2.2,0,0,1-.19.18h-3a1.46,1.46,0,0,0,1.36,1.42,1.92,1.92,0,0,0,1.12-.34c.15-.1.21-.14.32,0l.11.16c.08.12.11.17,0,.28a2.53,2.53,0,0,1-1.52.48,2.18,2.18,0,0,1,0-4.35Zm1.21,1.79a1.2,1.2,0,0,0-1.21-1.18,1.36,1.36,0,0,0-1.34,1.18Z"/>
        <path d="M202.42,576.54a.5.5,0,0,1,.49-.51.49.49,0,0,1,.49.51.48.48,0,0,1-.49.48A.49.49,0,0,1,202.42,576.54Zm.17,1.75a.21.21,0,0,1,.2-.2h.27a.22.22,0,0,1,.2.2v3.76a.21.21,0,0,1-.2.2h-.27a.2.2,0,0,1-.2-.2Z"/>
        <path d="M204.39,578.67a.2.2,0,0,1-.21-.2v-.18a.19.19,0,0,1,.21-.2h.55v-1.15a.21.21,0,0,1,.19-.2l.28,0a.19.19,0,0,1,.19.2v1.17h1.23a.19.19,0,0,1,.2.2v.18a.2.2,0,0,1-.2.2H205.6v2.46a.55.55,0,0,0,.56.62,1.27,1.27,0,0,0,.64-.18c.16-.1.22,0,.26.08l.07.18c.06.13,0,.21-.07.27a2.11,2.11,0,0,1-1,.25,1.14,1.14,0,0,1-1.14-1.22v-2.46Z"/>
        <path d="M209.83,578a1.83,1.83,0,0,1,1.89,1.89,2.46,2.46,0,0,1,0,.26.2.2,0,0,1-.19.18h-3a1.47,1.47,0,0,0,1.36,1.42,2,2,0,0,0,1.13-.34c.14-.1.21-.14.31,0l.11.16c.08.12.12.17,0,.28a2.59,2.59,0,0,1-1.53.48,2.18,2.18,0,0,1,0-4.35Zm1.22,1.79a1.21,1.21,0,0,0-1.22-1.18,1.36,1.36,0,0,0-1.34,1.18Z"/>
        <path d="M212.81,578.22a.15.15,0,0,1,.16-.16.43.43,0,0,1,.43.46,1.84,1.84,0,0,1,1.29-.52,1.3,1.3,0,0,1,1.23.66,2.27,2.27,0,0,1,1.48-.66c1.21,0,1.49.79,1.49,1.86v2.19a.2.2,0,0,1-.19.2h-.27a.2.2,0,0,1-.2-.2v-2.19c0-.78-.25-1.25-.88-1.25a1.75,1.75,0,0,0-1.21.56,3.73,3.73,0,0,1,.05.69v2.19a.2.2,0,0,1-.19.2h-.27a.21.21,0,0,1-.2-.2v-2.19c0-.79-.26-1.25-.94-1.25a1.41,1.41,0,0,0-1.12.57v2.87a.2.2,0,0,1-.19.2H213a.2.2,0,0,1-.2-.2Z"/>
        <path d="M220,581.85a.17.17,0,0,1,0-.18l.13-.24c.06-.1.13-.13.24,0a1.72,1.72,0,0,0,1,.37c.42,0,.71-.2.71-.52s-.32-.56-.93-.86-1.18-.57-1.18-1.28a1.15,1.15,0,0,1,1.29-1.09,2.14,2.14,0,0,1,1.19.33.19.19,0,0,1,0,.28l-.09.17a.2.2,0,0,1-.28.07,1.63,1.63,0,0,0-.86-.24c-.46,0-.61.26-.61.46,0,.36.29.5.79.73.72.34,1.34.61,1.34,1.36a1.27,1.27,0,0,1-1.41,1.19A2.11,2.11,0,0,1,220,581.85Z"/>
        <path d="M224.1,581.27a.52.52,0,0,1,.54.53.54.54,0,1,1-1.07,0A.53.53,0,0,1,224.1,581.27Z"/>
      </g>
    </g>
  </g>
</svg>
