<svg xmlns="http://www.w3.org/2000/svg" width="300" height="600" viewBox="0 0 300 600">
  <g>
    <rect width="300" height="600" fill="none"/>
    <g>
      <path d="M169.77,538.56c0-4-1.69-7.46-7.43-7.46a13.59,13.59,0,0,0-6.56,1.56l.94,3.19a9.63,9.63,0,0,1,4.78-1.34c2.91,0,3.39,1.64,3.39,2.7v.26c-6.35,0-10.35,2.18-10.35,6.66a5.28,5.28,0,0,0,5.58,5.29,6.36,6.36,0,0,0,5.11-2.27h.1s.73,3,4.72,1.87a25.5,25.5,0,0,1-.28-4.22Zm-4.73,4.2a3.11,3.11,0,0,1-3.32,3.19,2.16,2.16,0,0,1-2.35-2.32c0-2.41,2.65-3.07,5.67-3.06ZM76.21,525.68c.49,2.48,1.88,9.65,1.88,9.65.59,2.95,1.13,6,1.53,8.48h.07c.4-2.6,1-5,1.68-8.1l2.35-10H88.9L91.09,536c.58,2.86,1,5.06,1.4,7.72h.07c.39-2.68.91-5,1.47-7.92l2.11-10.09h5L95,549c-3.93.86-5.43-.72-6-3.23s-1.6-7.29-1.6-7.29a67.85,67.85,0,0,1-1.25-7.14h-.08a72.31,72.31,0,0,1-1.52,7.13L82,549c-4,.8-5.4-.38-6.18-3.6-.66-2.76-4.8-19.74-4.8-19.74Zm39.05,12.88c0-4-1.7-7.46-7.43-7.46a13.56,13.56,0,0,0-6.56,1.56l.93,3.19a9.7,9.7,0,0,1,4.79-1.34c2.91,0,3.38,1.64,3.38,2.7v.26c-6.34,0-10.35,2.18-10.35,6.66a5.28,5.28,0,0,0,5.59,5.29,6.34,6.34,0,0,0,5.1-2.27h.11s.73,3,4.72,1.87a25.5,25.5,0,0,1-.28-4.22Zm-4.73,4.2a3.3,3.3,0,0,1-.12,1,3.34,3.34,0,0,1-3.2,2.24,2.16,2.16,0,0,1-2.35-2.32c0-2.41,2.65-3.07,5.67-3.06ZM123.16,549h-4.74V525.68h4.74Zm66.68-23.34v5.52H194v4.47h-4.13v6.59c0,2.13.54,3.16,2.16,3.16a7.22,7.22,0,0,0,1.8-.21l.06,3.7a11.33,11.33,0,0,1-3.43.51,5.26,5.26,0,0,1-3.86-1.47c-1-1-1.4-2.67-1.4-5.05V525.68Zm-12.62,5.81v3.31h.14a5.14,5.14,0,0,1,4.77-3.7,4.93,4.93,0,0,1,1.07.1v4.59a9.28,9.28,0,0,0-1.41-.12,3.69,3.69,0,0,0-3.86,3.08,6.43,6.43,0,0,0-.11,1.3v9h-4.89V531.49Zm-46.22,0v2.38h.07a5.53,5.53,0,0,1,5.11-2.77,5,5,0,0,1,4.83,3.13h.07a7.4,7.4,0,0,1,2.22-2.18,6.32,6.32,0,0,1,3.46-.95c3.12,0,5.89,2.15,5.89,7.6V549h-4.76v-9.6c0-2.76-.94-4.36-2.89-4.36a3,3,0,0,0-2.86,2.14,5,5,0,0,0-.2,1.42V549h-4.75V539c0-2.34-.9-4-2.83-4a3.22,3.22,0,0,0-2.89,2.25,4,4,0,0,0-.23,1.43V549h-4.76V531.49Z" fill="#0070ce"/>
      <g>
        <path d="M203,547.78a2.27,2.27,0,0,0,4.38,0l.18-5.13,5.14-.19a2.27,2.27,0,0,0,0-4.38l-5.13-.19-.19-5.14a2.27,2.27,0,0,0-4.38,0l-.18,5.12-5.15.21a2.27,2.27,0,0,0,0,4.38l5.13.19Z" fill="#0070ce"/>
        <g>
          <path d="M203.39,526l-.93-10.56c-.1-1.07,1.22-1.9,2.75-1.9s2.86.86,2.76,1.9L207,526c0,.67-.88,1.13-1.83,1.13s-1.76-.51-1.82-1.13" fill="#ffc220"/>
          <path d="M216.81,548.92l8.68,6.09c.87.58,2.26-.11,3-1.44s.67-2.89-.27-3.35l-9.62-4.47a2,2,0,0,0-1.82,3.17" fill="#ffc220"/>
          <path d="M216.52,533.51c.48.82,1.33,1.3,1.89,1l9.62-4.48c.95-.46,1-2,.27-3.34s-2.15-2-3-1.44l-8.68,6.09a1.66,1.66,0,0,0-.07,2.14" fill="#ffc220"/>
          <path d="M203.39,554.65l-.93,10.56c-.07,1,1.22,1.91,2.75,1.91s2.85-.86,2.76-1.91L207,554.65c-.06-.64-.88-1.13-1.83-1.13s-1.76.5-1.82,1.13" fill="#ffc220"/>
        </g>
      </g>
    </g>
  </g>
</svg>
