<svg xmlns="http://www.w3.org/2000/svg" viewBox="0 0 300 600"><g id="Layer_2" data-name="Layer 2"><g id="Bubble"><g id="Content"><g id="BUBBLE-2" data-name="BUBBLE"><rect x="10.5" y="218" width="279" height="164.5" rx="30" fill="#fff"/></g><g id="Walmart_is_very_convenient_and_saves_busy_parents_lots_of_time" data-name="Walmart+ is very convenient and saves busy parents lots of time"><path d="M23.64,287.17a.32.32,0,0,1,.33-.44h1.24a.38.38,0,0,1,.33.26l2.24,8.49h.07l3-8.73a.33.33,0,0,1,.31-.21h.34a.34.34,0,0,1,.31.21l3.05,8.73H35l2.2-8.49a.37.37,0,0,1,.33-.26h1.24a.32.32,0,0,1,.33.44L35.57,299.6a.36.36,0,0,1-.34.26h-.29a.35.35,0,0,1-.32-.21l-3.25-9.19h-.1l-3.19,9.19a.35.35,0,0,1-.32.21h-.29a.36.36,0,0,1-.34-.26Z" fill="#091b43"/><path d="M42.69,294.27a6.52,6.52,0,0,1,1.72.26c0-1.35-.65-2-1.72-2a6,6,0,0,0-2,.41.4.4,0,0,1-.48-.35l-.17-.71a.37.37,0,0,1,.28-.49,5.09,5.09,0,0,1,2.44-.49c2.73,0,3.49,1.65,3.49,3.78v4.66a.36.36,0,0,1-.39.37,1.08,1.08,0,0,1-1.12-1A3.72,3.72,0,0,1,42,299.88,2.64,2.64,0,0,1,39.27,297C39.27,295.46,40.49,294.27,42.69,294.27Zm-.28,4.09a2.64,2.64,0,0,0,2-1V295.9a3.89,3.89,0,0,0-1.55-.3c-1,0-1.76.52-1.76,1.41A1.25,1.25,0,0,0,42.41,298.36Z" fill="#091b43"/><path d="M48.61,287.13a.42.42,0,0,1,.41-.4h1a.43.43,0,0,1,.41.4v12.14a.42.42,0,0,1-.41.4H49a.41.41,0,0,1-.41-.4Z" fill="#091b43"/><path d="M52.92,291.43a.36.36,0,0,1,.39-.37,1.07,1.07,0,0,1,1.11,1,3.74,3.74,0,0,1,2.66-1.11,3,3,0,0,1,2.61,1.35,4.07,4.07,0,0,1,2.89-1.35c2.6,0,3.25,1.82,3.25,4v4.29a.4.4,0,0,1-.41.4h-1a.39.39,0,0,1-.41-.4V294.9c0-1.37-.52-2.2-1.68-2.2a2.63,2.63,0,0,0-2,1,9.27,9.27,0,0,1,.07,1.15v4.42a.41.41,0,0,1-.39.4h-1a.4.4,0,0,1-.41-.4V294.9c0-1.38-.5-2.2-1.68-2.2a2.16,2.16,0,0,0-2,1.24v5.33a.42.42,0,0,1-.41.4h-1a.41.41,0,0,1-.41-.4Z" fill="#091b43"/><path d="M70.92,294.27a6.52,6.52,0,0,1,1.72.26c0-1.35-.65-2-1.72-2a6,6,0,0,0-2,.41.4.4,0,0,1-.48-.35l-.17-.71a.37.37,0,0,1,.28-.49,5.09,5.09,0,0,1,2.44-.49c2.73,0,3.49,1.65,3.49,3.78v4.66a.36.36,0,0,1-.39.37,1.08,1.08,0,0,1-1.12-1,3.72,3.72,0,0,1-2.69,1.13A2.64,2.64,0,0,1,67.5,297C67.5,295.46,68.72,294.27,70.92,294.27Zm-.28,4.09a2.64,2.64,0,0,0,2-1V295.9a3.89,3.89,0,0,0-1.55-.3c-1,0-1.76.52-1.76,1.41A1.25,1.25,0,0,0,70.64,298.36Z" fill="#091b43"/><path d="M76.79,291.43a.35.35,0,0,1,.38-.37,1.12,1.12,0,0,1,1.13,1.07,3.23,3.23,0,0,1,2.54-1.19c.81,0,1.83.23,1.55.8l-.44.92a.38.38,0,0,1-.52.21,2,2,0,0,0-.78-.17,2.4,2.4,0,0,0-2,1.15v5.42c0,.37-.24.4-.6.4h-.85a.4.4,0,0,1-.4-.4Z" fill="#091b43"/><path d="M83.33,292.7a.4.4,0,0,1-.4-.41v-.75a.39.39,0,0,1,.4-.41h1v-2.39a.41.41,0,0,1,.41-.4h1.06a.38.38,0,0,1,.38.4v2.39h2.26a.41.41,0,0,1,.41.41v.75a.43.43,0,0,1-.41.41H86.16v4.55c0,.72.47.87,1,.87a2.46,2.46,0,0,0,1-.31.32.32,0,0,1,.5.18l.33.87c.09.22,0,.37-.2.5a4.14,4.14,0,0,1-1.85.52,2.38,2.38,0,0,1-2.69-2.56V292.7Z" fill="#091b43"/><path d="M94.1,294H91.25a.36.36,0,0,1-.35-.35v-.77a.37.37,0,0,1,.35-.36H94.1v-2.86a.34.34,0,0,1,.35-.33h.78a.34.34,0,0,1,.35.33v2.86h2.85a.35.35,0,0,1,.33.36v.77a.34.34,0,0,1-.33.35H95.58v2.83a.35.35,0,0,1-.35.34h-.78a.35.35,0,0,1-.35-.34Z" fill="#091b43"/><path d="M105.46,288.06a1.23,1.23,0,0,1,1.22-1.26,1.25,1.25,0,1,1,0,2.5A1.23,1.23,0,0,1,105.46,288.06Zm.3,3.48a.42.42,0,0,1,.4-.41h1a.44.44,0,0,1,.41.41v7.73a.42.42,0,0,1-.41.4h-1a.4.4,0,0,1-.4-.4Z" fill="#091b43"/><path d="M109.66,299a.36.36,0,0,1-.15-.45l.39-.79a.37.37,0,0,1,.55-.11,4,4,0,0,0,2.13.63c.72,0,1.13-.35,1.13-.84s-.65-.94-1.83-1.48-2.31-1.29-2.31-2.7c0-1.07.76-2.33,2.83-2.33a4.81,4.81,0,0,1,2.49.63.5.5,0,0,1,.19.63l-.3.59a.4.4,0,0,1-.55.17,4.43,4.43,0,0,0-1.83-.43c-.74,0-1.09.37-1.09.76,0,.56.61.89,1.46,1.26,1.57.67,2.75,1.24,2.75,2.83,0,1.33-1.14,2.5-3,2.5A5,5,0,0,1,109.66,299Z" fill="#091b43"/><path d="M120.63,291.61c-.15-.26,0-.48.31-.48h1.13a.36.36,0,0,1,.37.24l2.28,5.23h0l2.39-5.23c.11-.24.33-.24.57-.24h.83c.32,0,.47.22.32.48l-3.7,8a.38.38,0,0,1-.35.23h-.11a.39.39,0,0,1-.37-.23Z" fill="#091b43"/><path d="M133.84,290.94a3.81,3.81,0,0,1,3.9,3.93c0,.14,0,.44,0,.59a.4.4,0,0,1-.39.37h-5.9a2.51,2.51,0,0,0,2.56,2.33,3.32,3.32,0,0,0,2.09-.72c.18-.13.35-.19.5,0l.5.78c.14.18.22.35,0,.57a4.87,4.87,0,0,1-3.16,1.06,4.47,4.47,0,0,1,0-8.94Zm2.07,3.52a2,2,0,0,0-2.11-1.94,2.17,2.17,0,0,0-2.29,1.94Z" fill="#091b43"/><path d="M139.5,291.43a.36.36,0,0,1,.39-.37,1.13,1.13,0,0,1,1.13,1.07,3.21,3.21,0,0,1,2.53-1.19c.81,0,1.83.23,1.55.8l-.44.92a.37.37,0,0,1-.52.21,2,2,0,0,0-.78-.17,2.42,2.42,0,0,0-2,1.15v5.42c0,.37-.24.4-.59.4h-.85a.4.4,0,0,1-.41-.4Z" fill="#091b43"/><path d="M145.59,291.68a.37.37,0,0,1,.37-.55h1.22a.43.43,0,0,1,.37.24l2,5.86h0l2.41-5.86c.07-.2.24-.24.44-.24h1.15a.37.37,0,0,1,.37.55l-5.22,12.14a.42.42,0,0,1-.35.26h-1.18a.39.39,0,0,1-.37-.58l1.72-4.12Z" fill="#091b43"/><path d="M163.14,290.94a3.76,3.76,0,0,1,3.11,1.48.42.42,0,0,1-.08.61l-.66.61c-.24.23-.41.06-.56-.09a2.57,2.57,0,0,0-1.75-.85,2.71,2.71,0,0,0-.06,5.42,2.68,2.68,0,0,0,2-1.05.38.38,0,0,1,.57,0l.57.46c.21.19.3.39.15.61a3.89,3.89,0,0,1-3.33,1.78,4.36,4.36,0,0,1-4.36-4.46A4.43,4.43,0,0,1,163.14,290.94Z" fill="#091b43"/><path d="M171.93,290.94a4.47,4.47,0,1,1-4.37,4.44A4.44,4.44,0,0,1,171.93,290.94Zm0,7.18a2.59,2.59,0,0,0,2.53-2.74,2.54,2.54,0,1,0-5.08,0A2.6,2.6,0,0,0,171.93,298.12Z" fill="#091b43"/><path d="M178.15,291.43a.35.35,0,0,1,.38-.37,1.08,1.08,0,0,1,1.11,1,3.94,3.94,0,0,1,2.83-1.15c2.61,0,3.31,1.82,3.31,4v4.29a.41.41,0,0,1-.4.4h-1a.41.41,0,0,1-.41-.4V294.9c0-1.38-.57-2.2-1.68-2.2a2.6,2.6,0,0,0-2.26,1.24v5.33c0,.27-.14.4-.49.4h-.95a.4.4,0,0,1-.4-.4Z" fill="#091b43"/><path d="M187.17,291.61c-.15-.26,0-.48.32-.48h1.13a.37.37,0,0,1,.37.24l2.27,5.23h0l2.38-5.23c.11-.24.34-.24.58-.24h.83c.31,0,.46.22.31.48l-3.7,8a.36.36,0,0,1-.35.23h-.11a.41.41,0,0,1-.37-.23Z" fill="#091b43"/><path d="M200.38,290.94a3.81,3.81,0,0,1,3.9,3.93c0,.14,0,.44,0,.59a.41.41,0,0,1-.39.37H198a2.5,2.5,0,0,0,2.55,2.33,3.32,3.32,0,0,0,2.09-.72c.19-.13.35-.19.5,0l.5.78c.15.18.22.35,0,.57a4.87,4.87,0,0,1-3.16,1.06,4.48,4.48,0,0,1,0-8.94Zm2.07,3.52a2,2,0,0,0-2.11-1.94,2.17,2.17,0,0,0-2.29,1.94Z" fill="#091b43"/><path d="M206,291.43a.36.36,0,0,1,.39-.37,1.08,1.08,0,0,1,1.11,1,3.93,3.93,0,0,1,2.83-1.15c2.61,0,3.31,1.82,3.31,4v4.29a.42.42,0,0,1-.41.4h-1a.41.41,0,0,1-.41-.4V294.9c0-1.38-.57-2.2-1.68-2.2a2.6,2.6,0,0,0-2.26,1.24v5.33c0,.27-.15.4-.5.4h-.94a.41.41,0,0,1-.41-.4Z" fill="#091b43"/><path d="M215.7,288.06a1.23,1.23,0,0,1,1.22-1.26,1.25,1.25,0,1,1,0,2.5A1.23,1.23,0,0,1,215.7,288.06Zm.3,3.48a.42.42,0,0,1,.4-.41h1a.43.43,0,0,1,.4.41v7.73a.41.41,0,0,1-.4.4h-1a.4.4,0,0,1-.4-.4Z" fill="#091b43"/><path d="M224,290.94a3.81,3.81,0,0,1,3.9,3.93c0,.14,0,.44,0,.59a.4.4,0,0,1-.39.37h-5.9a2.51,2.51,0,0,0,2.56,2.33,3.34,3.34,0,0,0,2.09-.72c.18-.13.35-.19.49,0l.5.78c.15.18.22.35,0,.57a4.88,4.88,0,0,1-3.17,1.06,4.47,4.47,0,0,1,0-8.94Zm2.07,3.52a2,2,0,0,0-2.11-1.94,2.16,2.16,0,0,0-2.29,1.94Z" fill="#091b43"/><path d="M229.65,291.43a.36.36,0,0,1,.39-.37,1.09,1.09,0,0,1,1.11,1,3.93,3.93,0,0,1,2.83-1.15c2.6,0,3.31,1.82,3.31,4v4.29a.42.42,0,0,1-.41.4h-1a.4.4,0,0,1-.4-.4V294.9c0-1.38-.58-2.2-1.69-2.2a2.58,2.58,0,0,0-2.25,1.24v5.33c0,.27-.15.4-.5.4h-.95a.4.4,0,0,1-.4-.4Z" fill="#091b43"/><path d="M239.19,292.7a.4.4,0,0,1-.4-.41v-.75a.39.39,0,0,1,.4-.41h1v-2.39a.41.41,0,0,1,.41-.4h1.06a.38.38,0,0,1,.38.4v2.39h2.26a.41.41,0,0,1,.41.41v.75a.43.43,0,0,1-.41.41H242v4.55c0,.72.47.87,1,.87a2.46,2.46,0,0,0,1-.31.32.32,0,0,1,.5.18l.33.87c.09.22,0,.37-.2.5a4.14,4.14,0,0,1-1.85.52,2.38,2.38,0,0,1-2.69-2.56V292.7Z" fill="#091b43"/><path d="M253.47,294.27a6.52,6.52,0,0,1,1.72.26c0-1.35-.64-2-1.72-2a6,6,0,0,0-2,.41.4.4,0,0,1-.48-.35l-.17-.71a.38.38,0,0,1,.28-.49,5.13,5.13,0,0,1,2.44-.49c2.74,0,3.5,1.65,3.5,3.78v4.66a.37.37,0,0,1-.39.37,1.09,1.09,0,0,1-1.13-1,3.68,3.68,0,0,1-2.68,1.13,2.64,2.64,0,0,1-2.76-2.85C250.05,295.46,251.27,294.27,253.47,294.27Zm-.27,4.09a2.64,2.64,0,0,0,2-1V295.9a4,4,0,0,0-1.56-.3c-1,0-1.75.52-1.75,1.41A1.24,1.24,0,0,0,253.2,298.36Z" fill="#091b43"/><path d="M259.34,291.43a.36.36,0,0,1,.39-.37,1.09,1.09,0,0,1,1.11,1,3.93,3.93,0,0,1,2.83-1.15c2.6,0,3.31,1.82,3.31,4v4.29a.42.42,0,0,1-.41.4h-1a.4.4,0,0,1-.41-.4V294.9c0-1.38-.58-2.2-1.68-2.2a2.58,2.58,0,0,0-2.26,1.24v5.33c0,.27-.15.4-.5.4h-.94a.4.4,0,0,1-.41-.4Z" fill="#091b43"/><path d="M272.9,290.94a6,6,0,0,1,2.14.45v-4.26a.44.44,0,0,1,.41-.4h1.05a.42.42,0,0,1,.41.4v12.25a.37.37,0,0,1-.39.37,1.08,1.08,0,0,1-1.12-1,4.16,4.16,0,0,1-2.72,1.11c-2.26,0-3.91-2-3.91-4.48A4.23,4.23,0,0,1,272.9,290.94Zm0,7.18a2.43,2.43,0,0,0,2.12-1.26V293.2a4.25,4.25,0,0,0-2-.5,2.6,2.6,0,0,0-2.48,2.7A2.52,2.52,0,0,0,272.94,298.12Z" fill="#091b43"/><path d="M24.1,319a.36.36,0,0,1-.15-.45l.39-.79a.37.37,0,0,1,.55-.11,4,4,0,0,0,2.13.63c.72,0,1.13-.35,1.13-.83s-.65-.95-1.83-1.49S24,314.68,24,313.28c0-1.08.76-2.33,2.83-2.33a4.83,4.83,0,0,1,2.49.62.5.5,0,0,1,.19.63l-.3.59a.4.4,0,0,1-.55.17,4.42,4.42,0,0,0-1.83-.42c-.74,0-1.09.37-1.09.75,0,.56.61.89,1.46,1.26,1.57.67,2.75,1.24,2.75,2.83,0,1.33-1.14,2.5-3.05,2.5A5,5,0,0,1,24.1,319Z" fill="#091b43"/><path d="M34.51,314.27a6.52,6.52,0,0,1,1.72.26c0-1.35-.64-2-1.72-2a6,6,0,0,0-2,.41.4.4,0,0,1-.48-.35l-.17-.71a.38.38,0,0,1,.28-.49,5.2,5.2,0,0,1,2.44-.48c2.74,0,3.5,1.64,3.5,3.77v4.66a.37.37,0,0,1-.39.37,1.09,1.09,0,0,1-1.13-1,3.7,3.7,0,0,1-2.68,1.13A2.64,2.64,0,0,1,31.09,317C31.09,315.46,32.31,314.27,34.51,314.27Zm-.27,4.09a2.63,2.63,0,0,0,2-1V315.9a4,4,0,0,0-1.55-.29c-1,0-1.76.51-1.76,1.4A1.25,1.25,0,0,0,34.24,318.36Z" fill="#091b43"/><path d="M39.25,311.61c-.15-.26,0-.48.31-.48h1.13a.36.36,0,0,1,.37.24l2.28,5.23h0l2.38-5.23c.11-.24.33-.24.57-.24h.84c.31,0,.46.22.31.48l-3.7,8.05a.37.37,0,0,1-.35.22h-.11a.4.4,0,0,1-.37-.22Z" fill="#091b43"/><path d="M52.46,311a3.8,3.8,0,0,1,3.9,3.92c0,.14,0,.44,0,.59a.4.4,0,0,1-.39.37H50a2.49,2.49,0,0,0,2.55,2.33,3.32,3.32,0,0,0,2.09-.72c.18-.13.35-.19.5,0l.5.78c.14.18.22.35,0,.57a4.87,4.87,0,0,1-3.16,1.06,4.47,4.47,0,0,1,0-8.93Zm2.07,3.51a2,2,0,0,0-2.11-1.94,2.17,2.17,0,0,0-2.29,1.94Z" fill="#091b43"/><path d="M57.77,319a.36.36,0,0,1-.15-.45l.39-.79a.37.37,0,0,1,.55-.11,4,4,0,0,0,2.13.63c.72,0,1.13-.35,1.13-.83s-.65-.95-1.83-1.49-2.31-1.29-2.31-2.69c0-1.08.75-2.33,2.83-2.33a4.83,4.83,0,0,1,2.49.62.5.5,0,0,1,.19.63l-.3.59a.4.4,0,0,1-.55.17,4.42,4.42,0,0,0-1.83-.42c-.74,0-1.09.37-1.09.75,0,.56.6.89,1.46,1.26,1.57.67,2.75,1.24,2.75,2.83,0,1.33-1.15,2.5-3.05,2.5A5,5,0,0,1,57.77,319Z" fill="#091b43"/><path d="M69.66,307.13a.42.42,0,0,1,.41-.4h1.05a.43.43,0,0,1,.41.4v4.26a6.17,6.17,0,0,1,2.15-.44,4.48,4.48,0,0,1,.22,8.93,4,4,0,0,1-2.74-1.13,1.07,1.07,0,0,1-1.11,1,.37.37,0,0,1-.39-.37Zm1.85,9.75a2.47,2.47,0,0,0,2.11,1.24A2.58,2.58,0,0,0,76,315.4a2.66,2.66,0,0,0-2.56-2.7,4.53,4.53,0,0,0-2,.46Z" fill="#091b43"/><path d="M79.67,311.54a.44.44,0,0,1,.41-.41h1a.42.42,0,0,1,.4.41v4.55c0,1.4.58,2,1.67,2a2.1,2.1,0,0,0,2-1.41v-5.17c0-.35.17-.41.48-.41h1a.43.43,0,0,1,.42.41v7.84a.36.36,0,0,1-.38.37,1.09,1.09,0,0,1-1.13-1,3.47,3.47,0,0,1-2.67,1.13c-2.55,0-3.18-1.69-3.18-3.92Z" fill="#091b43"/><path d="M89.09,319a.36.36,0,0,1-.15-.45l.39-.79a.37.37,0,0,1,.55-.11,4,4,0,0,0,2.13.63c.72,0,1.13-.35,1.13-.83s-.65-.95-1.83-1.49S89,314.68,89,313.28c0-1.08.75-2.33,2.83-2.33a4.83,4.83,0,0,1,2.49.62.5.5,0,0,1,.19.63l-.3.59a.4.4,0,0,1-.55.17,4.42,4.42,0,0,0-1.83-.42c-.74,0-1.09.37-1.09.75,0,.56.61.89,1.46,1.26,1.57.67,2.75,1.24,2.75,2.83,0,1.33-1.14,2.5-3,2.5A5,5,0,0,1,89.09,319Z" fill="#091b43"/><path d="M95.73,311.68a.38.38,0,0,1,.37-.55h1.22a.41.41,0,0,1,.37.24l2,5.86h0l2.4-5.86c.07-.2.24-.24.44-.24h1.15a.37.37,0,0,1,.37.55l-5.21,12.14a.45.45,0,0,1-.36.26H97.32a.39.39,0,0,1-.37-.58l1.72-4.12Z" fill="#091b43"/><path d="M111.33,323.67a.41.41,0,0,1-.45.41h-1a.41.41,0,0,1-.41-.41V311.43a.36.36,0,0,1,.39-.37,1.07,1.07,0,0,1,1.09.88,3.92,3.92,0,0,1,2.66-1,4.19,4.19,0,0,1,4,4.45,4.24,4.24,0,0,1-4.1,4.48,4.61,4.61,0,0,1-2.18-.59Zm0-6.18a3.57,3.57,0,0,0,2,.63,2.59,2.59,0,0,0,2.49-2.72,2.48,2.48,0,0,0-2.42-2.7,2.31,2.31,0,0,0-2,1.2Z" fill="#091b43"/><path d="M122.28,314.27a6.62,6.62,0,0,1,1.72.26c0-1.35-.65-2-1.72-2a6.07,6.07,0,0,0-2,.41.4.4,0,0,1-.48-.35l-.17-.71a.38.38,0,0,1,.28-.49,5.2,5.2,0,0,1,2.44-.48c2.74,0,3.5,1.64,3.5,3.77v4.66a.37.37,0,0,1-.39.37,1.09,1.09,0,0,1-1.13-1,3.68,3.68,0,0,1-2.68,1.13,2.64,2.64,0,0,1-2.76-2.85C118.85,315.46,120.08,314.27,122.28,314.27Zm-.28,4.09a2.67,2.67,0,0,0,2-1V315.9a4,4,0,0,0-1.56-.29c-1,0-1.75.51-1.75,1.4A1.24,1.24,0,0,0,122,318.36Z" fill="#091b43"/><path d="M128.14,311.43a.36.36,0,0,1,.39-.37,1.12,1.12,0,0,1,1.13,1.07,3.26,3.26,0,0,1,2.53-1.18c.82,0,1.83.22,1.56.79l-.45.93a.37.37,0,0,1-.52.2,2,2,0,0,0-.77-.17,2.43,2.43,0,0,0-2,1.15v5.42c0,.37-.24.4-.59.4h-.85a.41.41,0,0,1-.41-.4Z" fill="#091b43"/><path d="M138.83,311a3.81,3.81,0,0,1,3.91,3.92c0,.14,0,.44,0,.59a.41.41,0,0,1-.39.37h-5.9a2.5,2.5,0,0,0,2.55,2.33,3.32,3.32,0,0,0,2.09-.72c.19-.13.35-.19.5,0l.5.78c.15.18.22.35,0,.57a4.85,4.85,0,0,1-3.16,1.06,4.47,4.47,0,0,1,0-8.93Zm2.07,3.51a2,2,0,0,0-2.1-1.94,2.18,2.18,0,0,0-2.3,1.94Z" fill="#091b43"/><path d="M144.5,311.43a.35.35,0,0,1,.38-.37,1.08,1.08,0,0,1,1.11,1,3.93,3.93,0,0,1,2.83-1.14c2.61,0,3.31,1.81,3.31,4v4.29a.41.41,0,0,1-.4.4h-1a.41.41,0,0,1-.41-.4V314.9c0-1.38-.57-2.2-1.68-2.2a2.6,2.6,0,0,0-2.26,1.24v5.33c0,.27-.14.4-.49.4h-.95a.4.4,0,0,1-.4-.4Z" fill="#091b43"/><path d="M154,312.7a.41.41,0,0,1-.41-.41v-.75a.39.39,0,0,1,.41-.41h1v-2.39a.41.41,0,0,1,.41-.4h1a.39.39,0,0,1,.39.4v2.39h2.26a.4.4,0,0,1,.4.41v.75a.42.42,0,0,1-.4.41h-2.26v4.55c0,.72.46.87,1,.87a2.38,2.38,0,0,0,1-.31.32.32,0,0,1,.5.18l.34.87c.09.22,0,.37-.21.5a4.07,4.07,0,0,1-1.85.52,2.37,2.37,0,0,1-2.68-2.55V312.7Z" fill="#091b43"/><path d="M160.94,319a.36.36,0,0,1-.15-.45l.39-.79a.38.38,0,0,1,.56-.11,4,4,0,0,0,2.12.63c.73,0,1.13-.35,1.13-.83s-.65-.95-1.83-1.49-2.31-1.29-2.31-2.69c0-1.08.76-2.33,2.83-2.33a4.9,4.9,0,0,1,2.5.62.51.51,0,0,1,.18.63l-.3.59a.4.4,0,0,1-.55.17,4.42,4.42,0,0,0-1.83-.42c-.74,0-1.09.37-1.09.75,0,.56.61.89,1.46,1.26,1.57.67,2.75,1.24,2.75,2.83,0,1.33-1.14,2.5-3.05,2.5A5,5,0,0,1,160.94,319Z" fill="#091b43"/><path d="M172.89,307.13a.42.42,0,0,1,.41-.4h1a.43.43,0,0,1,.41.4v12.14a.42.42,0,0,1-.41.4h-1a.41.41,0,0,1-.41-.4Z" fill="#091b43"/><path d="M181,311a4.47,4.47,0,1,1-4.36,4.43A4.43,4.43,0,0,1,181,311Zm0,7.17a2.72,2.72,0,1,0-2.55-2.74A2.59,2.59,0,0,0,181,318.12Z" fill="#091b43"/><path d="M186.73,312.7a.41.41,0,0,1-.41-.41v-.75a.39.39,0,0,1,.41-.41h1v-2.39a.4.4,0,0,1,.41-.4h1a.39.39,0,0,1,.39.4v2.39h2.26a.4.4,0,0,1,.4.41v.75a.42.42,0,0,1-.4.41h-2.26v4.55c0,.72.46.87,1,.87a2.42,2.42,0,0,0,1-.31.32.32,0,0,1,.5.18l.33.87c.1.22,0,.37-.2.5a4.07,4.07,0,0,1-1.85.52,2.37,2.37,0,0,1-2.68-2.55V312.7Z" fill="#091b43"/><path d="M193.63,319a.36.36,0,0,1-.15-.45l.39-.79a.37.37,0,0,1,.55-.11,4,4,0,0,0,2.13.63c.72,0,1.13-.35,1.13-.83s-.65-.95-1.83-1.49-2.31-1.29-2.31-2.69c0-1.08.76-2.33,2.83-2.33a4.83,4.83,0,0,1,2.49.62.5.5,0,0,1,.19.63l-.3.59a.4.4,0,0,1-.55.17,4.42,4.42,0,0,0-1.83-.42c-.74,0-1.09.37-1.09.75,0,.56.61.89,1.46,1.26,1.57.67,2.75,1.24,2.75,2.83,0,1.33-1.14,2.5-3.05,2.5A5,5,0,0,1,193.63,319Z" fill="#091b43"/><path d="M209.35,311a4.47,4.47,0,1,1-4.36,4.43A4.43,4.43,0,0,1,209.35,311Zm0,7.17a2.72,2.72,0,1,0-2.55-2.74A2.59,2.59,0,0,0,209.35,318.12Z" fill="#091b43"/><path d="M216.16,312.85h-1.11a.4.4,0,0,1-.4-.41v-.9a.39.39,0,0,1,.4-.41h1.11v-1c0-2.29,1.09-3.61,3.16-3.61a3.8,3.8,0,0,1,2.43.85.39.39,0,0,1,.07.49l-.53.77c-.13.21-.34.22-.56.08a2.23,2.23,0,0,0-1.37-.43c-1,0-1.35.78-1.35,1.85v1h2.42a.4.4,0,0,1,.41.41v.9a.42.42,0,0,1-.41.41H218v6.42a.42.42,0,0,1-.41.4h-1a.42.42,0,0,1-.41-.4Z" fill="#091b43"/><path d="M226,312.7a.41.41,0,0,1-.41-.41v-.75a.39.39,0,0,1,.41-.41h1v-2.39a.4.4,0,0,1,.4-.4h1.06a.38.38,0,0,1,.38.4v2.39h2.26a.41.41,0,0,1,.41.41v.75a.43.43,0,0,1-.41.41h-2.26v4.55c0,.72.47.87,1,.87a2.46,2.46,0,0,0,1-.31.32.32,0,0,1,.5.18l.33.87c.09.22,0,.37-.2.5a4.1,4.1,0,0,1-1.85.52,2.37,2.37,0,0,1-2.68-2.55V312.7Z" fill="#091b43"/><path d="M232.94,308.06a1.23,1.23,0,0,1,1.22-1.26,1.25,1.25,0,1,1,0,2.5A1.23,1.23,0,0,1,232.94,308.06Zm.3,3.48a.42.42,0,0,1,.4-.41h1a.44.44,0,0,1,.41.41v7.73a.42.42,0,0,1-.41.4h-1a.4.4,0,0,1-.4-.4Z" fill="#091b43"/><path d="M237.49,311.43a.36.36,0,0,1,.39-.37,1.07,1.07,0,0,1,1.11,1,3.74,3.74,0,0,1,2.66-1.1,2.94,2.94,0,0,1,2.61,1.34,4.07,4.07,0,0,1,2.89-1.34c2.6,0,3.25,1.81,3.25,4v4.29a.4.4,0,0,1-.41.4h-1a.39.39,0,0,1-.41-.4V314.9c0-1.37-.52-2.2-1.68-2.2a2.63,2.63,0,0,0-2.05,1,9.41,9.41,0,0,1,.07,1.15v4.42a.41.41,0,0,1-.39.4h-1.05a.4.4,0,0,1-.41-.4V314.9c0-1.38-.5-2.2-1.68-2.2a2.16,2.16,0,0,0-2,1.24v5.33a.42.42,0,0,1-.41.4h-1a.41.41,0,0,1-.41-.4Z" fill="#091b43"/><path d="M256.45,311a3.81,3.81,0,0,1,3.91,3.92c0,.14,0,.44,0,.59a.4.4,0,0,1-.39.37H254a2.5,2.5,0,0,0,2.55,2.33,3.32,3.32,0,0,0,2.09-.72c.19-.13.35-.19.5,0l.5.78c.15.18.22.35,0,.57a4.85,4.85,0,0,1-3.16,1.06,4.47,4.47,0,0,1,0-8.93Zm2.07,3.51a2,2,0,0,0-2.1-1.94,2.18,2.18,0,0,0-2.3,1.94Z" fill="#091b43"/><path d="M263.13,317.18a1.32,1.32,0,1,1-1.29,1.33A1.32,1.32,0,0,1,263.13,317.18Z" fill="#091b43"/><path d="M23.64,327.17a.32.32,0,0,1,.33-.44h1.24a.38.38,0,0,1,.33.26l2.24,8.49h.07l3-8.73a.33.33,0,0,1,.31-.21h.34a.34.34,0,0,1,.31.21l3.05,8.73H35l2.2-8.49a.37.37,0,0,1,.33-.26h1.24a.32.32,0,0,1,.33.44L35.57,339.6a.36.36,0,0,1-.34.26h-.29a.36.36,0,0,1-.32-.2l-3.25-9.2h-.1l-3.19,9.2a.36.36,0,0,1-.32.2h-.29a.36.36,0,0,1-.34-.26Z" fill="#091b43"/><path d="M43.65,331a3.8,3.8,0,0,1,3.9,3.92c0,.14,0,.44,0,.59a.41.41,0,0,1-.39.37h-5.9a2.5,2.5,0,0,0,2.55,2.33,3.32,3.32,0,0,0,2.09-.72c.19-.13.35-.19.5,0l.5.78c.15.18.22.35,0,.57a4.87,4.87,0,0,1-3.16,1.06,4.47,4.47,0,0,1,0-8.93Zm2.07,3.51a2,2,0,0,0-2.1-1.94,2.18,2.18,0,0,0-2.3,1.94Z" fill="#091b43"/><path d="M57.42,331a3.72,3.72,0,0,1,3.1,1.47.42.42,0,0,1-.07.61l-.67.61c-.24.23-.4.06-.55-.09a2.62,2.62,0,1,0-1.81,4.57,2.64,2.64,0,0,0,2-1.05.4.4,0,0,1,.58,0l.57.46c.2.19.29.39.15.61a3.9,3.9,0,0,1-3.33,1.78A4.36,4.36,0,0,1,53,335.42,4.44,4.44,0,0,1,57.42,331Z" fill="#091b43"/><path d="M65.26,334.27a6.52,6.52,0,0,1,1.72.26c0-1.35-.65-2-1.72-2a6,6,0,0,0-2,.41.4.4,0,0,1-.48-.35l-.17-.71a.37.37,0,0,1,.28-.49A5.16,5.16,0,0,1,65.3,331c2.73,0,3.49,1.64,3.49,3.77v4.66a.37.37,0,0,1-.39.37,1.08,1.08,0,0,1-1.12-1,3.72,3.72,0,0,1-2.69,1.13A2.64,2.64,0,0,1,61.84,337C61.84,335.46,63.06,334.27,65.26,334.27ZM65,338.36a2.67,2.67,0,0,0,2-1V335.9a4,4,0,0,0-1.55-.29c-1,0-1.76.51-1.76,1.4A1.24,1.24,0,0,0,65,338.36Z" fill="#091b43"/><path d="M71.13,331.43a.35.35,0,0,1,.38-.37,1.08,1.08,0,0,1,1.11,1A3.93,3.93,0,0,1,75.45,331c2.61,0,3.31,1.81,3.31,4v4.29a.41.41,0,0,1-.4.4h-1a.41.41,0,0,1-.41-.4V334.9c0-1.38-.57-2.2-1.68-2.2A2.56,2.56,0,0,0,73,333.94v5.33c0,.27-.15.4-.5.4h-1a.4.4,0,0,1-.4-.4Z" fill="#091b43"/><path d="M85,339a.36.36,0,0,1-.15-.45l.39-.79a.38.38,0,0,1,.56-.11,4,4,0,0,0,2.12.63c.72,0,1.13-.35,1.13-.83s-.65-.95-1.83-1.49-2.31-1.29-2.31-2.69c0-1.08.76-2.33,2.83-2.33a4.9,4.9,0,0,1,2.5.62.51.51,0,0,1,.18.63l-.3.59a.4.4,0,0,1-.55.17,4.42,4.42,0,0,0-1.83-.42c-.74,0-1.09.37-1.09.75,0,.56.61.89,1.46,1.26,1.57.67,2.75,1.24,2.75,2.83,0,1.33-1.14,2.5-3,2.5A5,5,0,0,1,85,339Z" fill="#091b43"/><path d="M92.21,332.7a.4.4,0,0,1-.4-.41v-.75a.39.39,0,0,1,.4-.41h1v-2.39a.41.41,0,0,1,.41-.4h1.06a.38.38,0,0,1,.38.4v2.39H97.3a.41.41,0,0,1,.41.41v.75a.43.43,0,0,1-.41.41H95v4.55c0,.72.47.87,1,.87a2.46,2.46,0,0,0,1-.31.32.32,0,0,1,.5.18l.33.87c.09.22,0,.37-.2.5a4.14,4.14,0,0,1-1.85.52,2.37,2.37,0,0,1-2.69-2.55V332.7Z" fill="#091b43"/><path d="M99.17,328.06a1.23,1.23,0,0,1,1.22-1.26,1.25,1.25,0,1,1,0,2.5A1.23,1.23,0,0,1,99.17,328.06Zm.3,3.48a.42.42,0,0,1,.4-.41h1a.44.44,0,0,1,.41.41v7.73a.42.42,0,0,1-.41.4h-1a.4.4,0,0,1-.4-.4Z" fill="#091b43"/><path d="M103.78,327.13a.41.41,0,0,1,.4-.4h1a.44.44,0,0,1,.41.4v12.14a.42.42,0,0,1-.41.4h-1a.4.4,0,0,1-.4-.4Z" fill="#091b43"/><path d="M108.14,327.13a.42.42,0,0,1,.41-.4h1a.43.43,0,0,1,.41.4v12.14a.42.42,0,0,1-.41.4h-1a.41.41,0,0,1-.41-.4Z" fill="#091b43"/><path d="M124.36,339.73a3.68,3.68,0,0,1-4,4,4.61,4.61,0,0,1-3-1.07.38.38,0,0,1-.09-.48l.44-.81a.35.35,0,0,1,.57-.13,3.24,3.24,0,0,0,2,.79c1.13,0,2.13-.55,2.13-2.29v-.46a4.64,4.64,0,0,1-2.19.61,4.26,4.26,0,0,1-4.12-4.48,4.19,4.19,0,0,1,4-4.45,4.07,4.07,0,0,1,2.66,1,1.08,1.08,0,0,1,1.1-.86.35.35,0,0,1,.38.37Zm-3.82-1.61a3.53,3.53,0,0,0,2-.68V333.9a2.41,2.41,0,0,0-4.48,1.5A2.64,2.64,0,0,0,120.54,338.12Z" fill="#091b43"/><path d="M130.51,331a3.8,3.8,0,0,1,3.9,3.92c0,.14,0,.44,0,.59a.4.4,0,0,1-.39.37h-5.9a2.51,2.51,0,0,0,2.56,2.33,3.32,3.32,0,0,0,2.09-.72c.18-.13.35-.19.5,0l.5.78c.14.18.22.35,0,.57a4.87,4.87,0,0,1-3.16,1.06,4.47,4.47,0,0,1,0-8.93Zm2.07,3.51a2,2,0,0,0-2.11-1.94,2.17,2.17,0,0,0-2.29,1.94Z" fill="#091b43"/><path d="M135.76,332.7a.4.4,0,0,1-.4-.41v-.75a.39.39,0,0,1,.4-.41h1v-2.39a.41.41,0,0,1,.41-.4h1a.39.39,0,0,1,.39.4v2.39h2.26a.41.41,0,0,1,.41.41v.75a.43.43,0,0,1-.41.41h-2.26v4.55c0,.72.46.87,1,.87a2.46,2.46,0,0,0,1-.31.31.31,0,0,1,.49.18l.34.87c.09.22,0,.37-.21.5a4.07,4.07,0,0,1-1.85.52,2.37,2.37,0,0,1-2.68-2.55V332.7Z" fill="#091b43"/><path d="M146.68,332.7a.41.41,0,0,1-.41-.41v-.75a.39.39,0,0,1,.41-.41h1v-2.39a.4.4,0,0,1,.4-.4h1.06a.39.39,0,0,1,.39.4v2.39h2.25a.4.4,0,0,1,.41.41v.75a.42.42,0,0,1-.41.41h-2.25v4.55c0,.72.46.87,1,.87a2.42,2.42,0,0,0,1-.31.32.32,0,0,1,.5.18l.33.87c.09.22,0,.37-.2.5a4.1,4.1,0,0,1-1.85.52,2.37,2.37,0,0,1-2.68-2.55V332.7Z" fill="#091b43"/><path d="M153.93,327.13a.42.42,0,0,1,.41-.4h1a.43.43,0,0,1,.41.4v4.7a4.12,4.12,0,0,1,2.48-.88c2.42,0,3.31,1.7,3.31,4v4.29a.42.42,0,0,1-.41.4h-1a.4.4,0,0,1-.4-.4v-4.33c0-1.41-.59-2.24-1.7-2.24a2.53,2.53,0,0,0-2.24,1.24v5.33a.39.39,0,0,1-.43.4h-1a.4.4,0,0,1-.41-.4Z" fill="#091b43"/><path d="M167.62,331a3.8,3.8,0,0,1,3.9,3.92c0,.14,0,.44,0,.59a.4.4,0,0,1-.39.37H165.2a2.49,2.49,0,0,0,2.55,2.33,3.32,3.32,0,0,0,2.09-.72c.18-.13.35-.19.5,0l.5.78c.14.18.22.35,0,.57a4.87,4.87,0,0,1-3.16,1.06,4.47,4.47,0,0,1,0-8.93Zm2.07,3.51a2,2,0,0,0-2.11-1.94,2.17,2.17,0,0,0-2.29,1.94Z" fill="#091b43"/><path d="M181.27,331a3.8,3.8,0,0,1,3.9,3.92c0,.14,0,.44,0,.59a.41.41,0,0,1-.39.37h-5.9a2.5,2.5,0,0,0,2.55,2.33,3.32,3.32,0,0,0,2.09-.72c.18-.13.35-.19.5,0l.5.78c.15.18.22.35,0,.57a4.87,4.87,0,0,1-3.16,1.06,4.47,4.47,0,0,1,0-8.93Zm2.07,3.51a2,2,0,0,0-2.11-1.94,2.17,2.17,0,0,0-2.29,1.94Z" fill="#091b43"/><path d="M186.58,339a.36.36,0,0,1-.15-.45l.39-.79a.38.38,0,0,1,.56-.11,4,4,0,0,0,2.12.63c.72,0,1.13-.35,1.13-.83s-.65-.95-1.83-1.49-2.31-1.29-2.31-2.69c0-1.08.76-2.33,2.83-2.33a4.83,4.83,0,0,1,2.49.62.5.5,0,0,1,.19.63l-.3.59a.4.4,0,0,1-.55.17,4.42,4.42,0,0,0-1.83-.42c-.74,0-1.09.37-1.09.75,0,.56.61.89,1.46,1.26,1.57.67,2.75,1.24,2.75,2.83,0,1.33-1.14,2.5-3.05,2.5A5,5,0,0,1,186.58,339Z" fill="#091b43"/><path d="M193.87,339a.36.36,0,0,1-.15-.45l.39-.79a.38.38,0,0,1,.56-.11,3.89,3.89,0,0,0,2.12.63c.72,0,1.13-.35,1.13-.83s-.65-.95-1.83-1.49-2.31-1.29-2.31-2.69c0-1.08.76-2.33,2.83-2.33a4.83,4.83,0,0,1,2.49.62.5.5,0,0,1,.19.63l-.3.59a.4.4,0,0,1-.55.17,4.42,4.42,0,0,0-1.83-.42c-.74,0-1.09.37-1.09.75,0,.56.61.89,1.46,1.26,1.57.67,2.75,1.24,2.75,2.83,0,1.33-1.14,2.5-3,2.5A5,5,0,0,1,193.87,339Z" fill="#091b43"/><path d="M205.25,331a3.81,3.81,0,0,1,3.9,3.92c0,.14,0,.44,0,.59a.4.4,0,0,1-.39.37h-5.9a2.51,2.51,0,0,0,2.56,2.33,3.29,3.29,0,0,0,2.08-.72c.19-.13.36-.19.5,0l.5.78c.15.18.22.35,0,.57a4.88,4.88,0,0,1-3.17,1.06,4.47,4.47,0,0,1,0-8.93Zm2.07,3.51a2,2,0,0,0-2.11-1.94,2.16,2.16,0,0,0-2.29,1.94Z" fill="#091b43"/><path d="M210.91,331.43a.36.36,0,0,1,.39-.37,1.09,1.09,0,0,1,1.11,1,3.92,3.92,0,0,1,2.83-1.14c2.6,0,3.31,1.81,3.31,4v4.29a.42.42,0,0,1-.41.4h-1a.4.4,0,0,1-.4-.4V334.9c0-1.38-.58-2.2-1.69-2.2a2.58,2.58,0,0,0-2.25,1.24v5.33c0,.27-.15.4-.5.4h-.95a.4.4,0,0,1-.4-.4Z" fill="#091b43"/><path d="M220.45,332.7a.4.4,0,0,1-.4-.41v-.75a.39.39,0,0,1,.4-.41h1v-2.39a.41.41,0,0,1,.41-.4h1.06a.38.38,0,0,1,.38.4v2.39h2.26a.41.41,0,0,1,.41.41v.75a.43.43,0,0,1-.41.41h-2.26v4.55c0,.72.47.87,1,.87a2.46,2.46,0,0,0,1-.31.32.32,0,0,1,.5.18l.33.87c.09.22,0,.37-.21.5a4.06,4.06,0,0,1-1.84.52,2.37,2.37,0,0,1-2.69-2.55V332.7Z" fill="#091b43"/><path d="M227.41,328.06a1.23,1.23,0,0,1,1.22-1.26,1.25,1.25,0,1,1,0,2.5A1.23,1.23,0,0,1,227.41,328.06Zm.3,3.48a.42.42,0,0,1,.4-.41h1a.43.43,0,0,1,.4.41v7.73a.41.41,0,0,1-.4.4h-1a.4.4,0,0,1-.4-.4Z" fill="#091b43"/><path d="M234.73,334.27a6.52,6.52,0,0,1,1.72.26c0-1.35-.64-2-1.72-2a6,6,0,0,0-2,.41.4.4,0,0,1-.48-.35l-.17-.71a.38.38,0,0,1,.28-.49,5.2,5.2,0,0,1,2.44-.48c2.74,0,3.5,1.64,3.5,3.77v4.66a.37.37,0,0,1-.39.37,1.09,1.09,0,0,1-1.13-1,3.68,3.68,0,0,1-2.68,1.13,2.64,2.64,0,0,1-2.76-2.85C231.31,335.46,232.53,334.27,234.73,334.27Zm-.27,4.09a2.67,2.67,0,0,0,2-1V335.9a4,4,0,0,0-1.56-.29c-1,0-1.75.51-1.75,1.4A1.24,1.24,0,0,0,234.46,338.36Z" fill="#091b43"/><path d="M240.65,327.13a.42.42,0,0,1,.41-.4h1a.43.43,0,0,1,.4.4v12.14a.41.41,0,0,1-.4.4h-1a.41.41,0,0,1-.41-.4Z" fill="#091b43"/><path d="M244.61,339a.34.34,0,0,1-.14-.45l.38-.79a.38.38,0,0,1,.56-.11,4,4,0,0,0,2.13.63c.72,0,1.12-.35,1.12-.83s-.64-.95-1.83-1.49-2.31-1.29-2.31-2.69c0-1.08.76-2.33,2.83-2.33a4.87,4.87,0,0,1,2.5.62.51.51,0,0,1,.18.63l-.29.59a.41.41,0,0,1-.56.17,4.38,4.38,0,0,0-1.83-.42c-.74,0-1.09.37-1.09.75,0,.56.61.89,1.46,1.26,1.57.67,2.76,1.24,2.76,2.83,0,1.33-1.15,2.5-3.06,2.5A5,5,0,0,1,244.61,339Z" fill="#091b43"/><path d="M23.75,351.61a.3.3,0,0,1,.29-.48h1.11a.37.37,0,0,1,.37.26l1.41,4.9h0l2.31-5.14a.38.38,0,0,1,.35-.2h.13a.37.37,0,0,1,.37.2l2.29,5.16h0l1.37-4.92c.11-.26.42-.26.64-.26h.78c.3,0,.46.22.33.48l-2.44,8.05a.38.38,0,0,1-.39.22h-.07a.4.4,0,0,1-.37-.21l-2.61-5.8h0L27,359.67a.32.32,0,0,1-.33.21H26.6a.35.35,0,0,1-.36-.22Z" fill="#091b43"/><path d="M37,348.06a1.23,1.23,0,0,1,1.22-1.26,1.25,1.25,0,1,1,0,2.5A1.23,1.23,0,0,1,37,348.06Zm.3,3.48a.42.42,0,0,1,.4-.41h1a.44.44,0,0,1,.41.41v7.73a.42.42,0,0,1-.41.4h-1a.4.4,0,0,1-.4-.4Z" fill="#091b43"/><path d="M41.16,352.7a.41.41,0,0,1-.41-.41v-.75a.39.39,0,0,1,.41-.41h1v-2.39a.4.4,0,0,1,.4-.4H43.6a.39.39,0,0,1,.39.4v2.39h2.25a.41.41,0,0,1,.41.41v.75a.43.43,0,0,1-.41.41H44v4.55c0,.72.46.87,1,.87a2.46,2.46,0,0,0,1-.31.32.32,0,0,1,.5.18l.33.87c.09.22,0,.37-.2.5a4.1,4.1,0,0,1-1.85.52,2.37,2.37,0,0,1-2.68-2.55V352.7Z" fill="#091b43"/><path d="M48.41,347.13a.41.41,0,0,1,.4-.4h1a.44.44,0,0,1,.41.4v4.7a4.12,4.12,0,0,1,2.48-.88c2.42,0,3.31,1.7,3.31,4v4.29a.42.42,0,0,1-.41.4h-1a.4.4,0,0,1-.4-.4v-4.33c0-1.41-.6-2.24-1.7-2.24a2.53,2.53,0,0,0-2.24,1.24v5.33a.39.39,0,0,1-.43.4h-1a.4.4,0,0,1-.4-.4Z" fill="#091b43"/><path d="M62.19,351a4.47,4.47,0,1,1-4.37,4.43A4.43,4.43,0,0,1,62.19,351Zm0,7.17a2.72,2.72,0,1,0-2.55-2.74A2.59,2.59,0,0,0,62.19,358.12Z" fill="#091b43"/><path d="M68.31,351.54a.44.44,0,0,1,.41-.41h1a.42.42,0,0,1,.4.41v4.55c0,1.4.58,2,1.67,2a2.13,2.13,0,0,0,2-1.41v-5.17c0-.35.16-.41.48-.41h.94a.43.43,0,0,1,.42.41v7.84a.36.36,0,0,1-.38.37,1.09,1.09,0,0,1-1.13-1,3.44,3.44,0,0,1-2.67,1.13c-2.55,0-3.18-1.69-3.18-3.92Z" fill="#091b43"/><path d="M77.67,352.7a.4.4,0,0,1-.4-.41v-.75a.39.39,0,0,1,.4-.41h1v-2.39a.41.41,0,0,1,.41-.4h1.06a.38.38,0,0,1,.38.4v2.39h2.26a.41.41,0,0,1,.41.41v.75a.43.43,0,0,1-.41.41H80.5v4.55c0,.72.47.87,1,.87a2.46,2.46,0,0,0,1-.31.32.32,0,0,1,.5.18l.33.87c.09.22,0,.37-.2.5a4.14,4.14,0,0,1-1.85.52,2.37,2.37,0,0,1-2.69-2.55V352.7Z" fill="#091b43"/><path d="M88.83,359a.36.36,0,0,1-.15-.45l.39-.79a.37.37,0,0,1,.55-.11,4,4,0,0,0,2.13.63c.72,0,1.13-.35,1.13-.83s-.65-.95-1.83-1.49-2.31-1.29-2.31-2.69c0-1.08.76-2.33,2.83-2.33a4.83,4.83,0,0,1,2.49.62.5.5,0,0,1,.19.63l-.3.59a.4.4,0,0,1-.55.17,4.42,4.42,0,0,0-1.83-.42c-.74,0-1.09.37-1.09.75,0,.56.61.89,1.46,1.26,1.57.67,2.75,1.24,2.75,2.83,0,1.33-1.14,2.5-3,2.5A5,5,0,0,1,88.83,359Z" fill="#091b43"/><path d="M99.24,354.27a6.52,6.52,0,0,1,1.72.26c0-1.35-.64-2-1.72-2a6,6,0,0,0-2,.41.4.4,0,0,1-.48-.35l-.17-.71a.38.38,0,0,1,.28-.49,5.2,5.2,0,0,1,2.44-.48c2.74,0,3.5,1.64,3.5,3.77v4.66a.37.37,0,0,1-.39.37,1.09,1.09,0,0,1-1.13-1,3.68,3.68,0,0,1-2.68,1.13A2.64,2.64,0,0,1,95.82,357C95.82,355.46,97,354.27,99.24,354.27ZM99,358.36a2.67,2.67,0,0,0,2-1V355.9a4.07,4.07,0,0,0-1.56-.29c-1,0-1.76.51-1.76,1.4A1.25,1.25,0,0,0,99,358.36Z" fill="#091b43"/><path d="M109,351a3.72,3.72,0,0,1,3.1,1.47.42.42,0,0,1-.07.61l-.67.61c-.24.23-.4.06-.55-.09a2.62,2.62,0,1,0-1.81,4.57,2.64,2.64,0,0,0,2-1.05.38.38,0,0,1,.57,0l.58.46c.2.19.29.39.15.61a3.9,3.9,0,0,1-3.33,1.78,4.36,4.36,0,0,1-4.37-4.46A4.44,4.44,0,0,1,109,351Z" fill="#091b43"/><path d="M114,351.43a.35.35,0,0,1,.38-.37,1.12,1.12,0,0,1,1.13,1.07,3.27,3.27,0,0,1,2.54-1.18c.81,0,1.83.22,1.55.79l-.44.93a.37.37,0,0,1-.52.2,2,2,0,0,0-.78-.17,2.4,2.4,0,0,0-2,1.15v5.42c0,.37-.25.4-.6.4h-.85a.4.4,0,0,1-.4-.4Z" fill="#091b43"/><path d="M120.69,348.06a1.23,1.23,0,0,1,1.22-1.26,1.25,1.25,0,1,1,0,2.5A1.22,1.22,0,0,1,120.69,348.06Zm.29,3.48a.43.43,0,0,1,.41-.41h1a.43.43,0,0,1,.41.41v7.73a.42.42,0,0,1-.41.4h-1a.41.41,0,0,1-.41-.4Z" fill="#091b43"/><path d="M126,352.85h-1.11a.41.41,0,0,1-.41-.41v-.9a.39.39,0,0,1,.41-.41H126v-1c0-2.29,1.09-3.61,3.16-3.61a3.77,3.77,0,0,1,2.42.85.39.39,0,0,1,.08.49l-.54.77c-.13.21-.33.22-.55.08a2.27,2.27,0,0,0-1.37-.43c-1,0-1.35.78-1.35,1.85v1h2.42a.41.41,0,0,1,.41.41v.9a.43.43,0,0,1-.41.41h-2.42v6.42a.42.42,0,0,1-.41.4h-1a.41.41,0,0,1-.4-.4Z" fill="#091b43"/><path d="M131.82,348.06A1.23,1.23,0,0,1,133,346.8a1.25,1.25,0,1,1,0,2.5A1.23,1.23,0,0,1,131.82,348.06Zm.3,3.48a.42.42,0,0,1,.41-.41h1a.44.44,0,0,1,.41.41v7.73a.42.42,0,0,1-.41.4h-1a.4.4,0,0,1-.41-.4Z" fill="#091b43"/><path d="M140.22,351a3.75,3.75,0,0,1,3.11,1.47.42.42,0,0,1-.08.61l-.66.61c-.24.23-.41.06-.56-.09a2.61,2.61,0,1,0-1.81,4.57,2.68,2.68,0,0,0,2-1.05.38.38,0,0,1,.57,0l.57.46c.21.19.3.39.15.61a3.89,3.89,0,0,1-3.33,1.78,4.36,4.36,0,0,1-4.36-4.46A4.43,4.43,0,0,1,140.22,351Z" fill="#091b43"/><path d="M145,348.06a1.23,1.23,0,0,1,1.22-1.26,1.25,1.25,0,1,1,0,2.5A1.23,1.23,0,0,1,145,348.06Zm.3,3.48a.42.42,0,0,1,.41-.41h1a.43.43,0,0,1,.41.41v7.73a.42.42,0,0,1-.41.4h-1a.4.4,0,0,1-.41-.4Z" fill="#091b43"/><path d="M149.54,351.43a.36.36,0,0,1,.39-.37,1.08,1.08,0,0,1,1.11,1,3.93,3.93,0,0,1,2.83-1.14c2.61,0,3.31,1.81,3.31,4v4.29a.41.41,0,0,1-.4.4h-1a.41.41,0,0,1-.41-.4V354.9c0-1.38-.57-2.2-1.68-2.2a2.6,2.6,0,0,0-2.26,1.24v5.33c0,.27-.14.4-.5.4H150a.41.41,0,0,1-.41-.4Z" fill="#091b43"/><path d="M167.15,359.73a3.68,3.68,0,0,1-4,4,4.61,4.61,0,0,1-3-1.07.4.4,0,0,1-.1-.48l.45-.81a.35.35,0,0,1,.57-.13,3.24,3.24,0,0,0,2,.79c1.13,0,2.13-.55,2.13-2.29v-.46a4.64,4.64,0,0,1-2.19.61A4.26,4.26,0,0,1,159,355.4a4.19,4.19,0,0,1,4-4.45,4.07,4.07,0,0,1,2.66,1,1.07,1.07,0,0,1,1.09-.86.36.36,0,0,1,.39.37Zm-3.82-1.61a3.48,3.48,0,0,0,2-.68V353.9a2.49,2.49,0,0,0-2.05-1.2,2.52,2.52,0,0,0-2.42,2.7A2.64,2.64,0,0,0,163.33,358.12Z" fill="#091b43"/><path d="M173.22,352.7a.4.4,0,0,1-.4-.41v-.75a.39.39,0,0,1,.4-.41h1v-2.39a.41.41,0,0,1,.41-.4h1.06a.38.38,0,0,1,.38.4v2.39h2.26a.41.41,0,0,1,.41.41v.75a.43.43,0,0,1-.41.41h-2.26v4.55c0,.72.47.87,1,.87a2.46,2.46,0,0,0,1-.31.32.32,0,0,1,.5.18l.33.87c.09.22,0,.37-.21.5a4.06,4.06,0,0,1-1.84.52,2.37,2.37,0,0,1-2.69-2.55V352.7Z" fill="#091b43"/><path d="M180.48,347.13a.41.41,0,0,1,.4-.4h1a.44.44,0,0,1,.41.4v4.7a4.08,4.08,0,0,1,2.47-.88c2.43,0,3.31,1.7,3.31,4v4.29a.41.41,0,0,1-.4.4h-1a.41.41,0,0,1-.41-.4v-4.33c0-1.41-.59-2.24-1.7-2.24a2.53,2.53,0,0,0-2.23,1.24v5.33a.39.39,0,0,1-.43.4h-1a.4.4,0,0,1-.4-.4Z" fill="#091b43"/><path d="M194.16,351a3.81,3.81,0,0,1,3.91,3.92c0,.14,0,.44,0,.59a.4.4,0,0,1-.39.37h-5.9a2.51,2.51,0,0,0,2.55,2.33,3.3,3.3,0,0,0,2.09-.72c.19-.13.35-.19.5,0l.5.78c.15.18.22.35,0,.57a4.85,4.85,0,0,1-3.16,1.06,4.47,4.47,0,0,1,0-8.93Zm2.08,3.51a2,2,0,0,0-2.11-1.94,2.18,2.18,0,0,0-2.3,1.94Z" fill="#091b43"/><path d="M203.49,352.7a.41.41,0,0,1-.41-.41v-.75a.39.39,0,0,1,.41-.41h1v-2.39a.4.4,0,0,1,.41-.4h1.05a.39.39,0,0,1,.39.4v2.39h2.25a.4.4,0,0,1,.41.41v.75a.42.42,0,0,1-.41.41h-2.25v4.55c0,.72.46.87,1,.87a2.42,2.42,0,0,0,1-.31.32.32,0,0,1,.5.18l.33.87c.09.22,0,.37-.2.5a4.1,4.1,0,0,1-1.85.52,2.37,2.37,0,0,1-2.68-2.55V352.7Z" fill="#091b43"/><path d="M210.45,348.06a1.23,1.23,0,0,1,1.22-1.26,1.25,1.25,0,1,1,0,2.5A1.22,1.22,0,0,1,210.45,348.06Zm.29,3.48a.43.43,0,0,1,.41-.41h1a.43.43,0,0,1,.41.41v7.73a.42.42,0,0,1-.41.4h-1a.41.41,0,0,1-.41-.4Z" fill="#091b43"/><path d="M215,351.43a.35.35,0,0,1,.38-.37,1.07,1.07,0,0,1,1.11,1,3.77,3.77,0,0,1,2.67-1.1,2.91,2.91,0,0,1,2.6,1.34,4.07,4.07,0,0,1,2.89-1.34c2.61,0,3.25,1.81,3.25,4v4.29a.39.39,0,0,1-.4.4h-1a.39.39,0,0,1-.41-.4V354.9c0-1.37-.51-2.2-1.68-2.2a2.67,2.67,0,0,0-2.05,1,7.73,7.73,0,0,1,.07,1.15v4.42a.4.4,0,0,1-.39.4H221a.4.4,0,0,1-.41-.4V354.9c0-1.38-.5-2.2-1.68-2.2a2.18,2.18,0,0,0-2,1.24v5.33a.41.41,0,0,1-.4.4h-1a.4.4,0,0,1-.4-.4Z" fill="#091b43"/><path d="M234,351a3.8,3.8,0,0,1,3.9,3.92c0,.14,0,.44,0,.59a.4.4,0,0,1-.39.37h-5.9a2.51,2.51,0,0,0,2.56,2.33,3.32,3.32,0,0,0,2.09-.72c.18-.13.35-.19.49,0l.5.78c.15.18.23.35,0,.57a4.88,4.88,0,0,1-3.17,1.06,4.47,4.47,0,0,1,0-8.93Zm2.07,3.51a2,2,0,0,0-2.11-1.94,2.16,2.16,0,0,0-2.29,1.94Z" fill="#091b43"/><path d="M240.64,357.18a1.32,1.32,0,1,1-1.3,1.33A1.32,1.32,0,0,1,240.64,357.18Z" fill="#091b43"/></g><g id="Alicia"><path d="M21.54,251.18,27,239.4a.32.32,0,0,1,.3-.19h.17a.3.3,0,0,1,.3.19l5.39,11.78a.32.32,0,0,1-.3.46H31.32a.51.51,0,0,1-.51-.35L30,249.4H24.72l-.86,1.89a.53.53,0,0,1-.51.35H21.83A.31.31,0,0,1,21.54,251.18Zm7.56-3.73-1.75-3.85h-.06l-1.71,3.85Z" fill="#0071de"/><path d="M34.24,239.77a.41.41,0,0,1,.39-.38H36a.41.41,0,0,1,.39.38v11.48a.4.4,0,0,1-.39.39H34.63a.4.4,0,0,1-.39-.39Z" fill="#0071de"/><path d="M38.12,240.77a1.36,1.36,0,0,1,1.38-1.38,1.37,1.37,0,0,1,1.4,1.38,1.39,1.39,0,0,1-1.4,1.4A1.37,1.37,0,0,1,38.12,240.77Zm.31,3.17a.39.39,0,0,1,.39-.39h1.41a.39.39,0,0,1,.39.39v7.31a.4.4,0,0,1-.39.39H38.82a.4.4,0,0,1-.39-.39Z" fill="#0071de"/><path d="M46.36,243.38a4,4,0,0,1,3,1.36c.18.18.09.4-.09.58l-.73.8c-.18.2-.37.11-.53-.05a2.17,2.17,0,0,0-1.61-.7,2.23,2.23,0,0,0,0,4.46,2.14,2.14,0,0,0,1.71-.89.38.38,0,0,1,.51-.05l.79.66c.19.18.28.37.14.58a3.63,3.63,0,0,1-3.21,1.7,4.23,4.23,0,1,1,0-8.45Z" fill="#0071de"/><path d="M50.6,240.77A1.37,1.37,0,0,1,52,239.39a1.38,1.38,0,0,1,1.4,1.38,1.4,1.4,0,0,1-1.4,1.4A1.38,1.38,0,0,1,50.6,240.77Zm.32,3.17a.39.39,0,0,1,.38-.39h1.42a.4.4,0,0,1,.39.39v7.31a.41.41,0,0,1-.39.39H51.3a.4.4,0,0,1-.38-.39Z" fill="#0071de"/><path d="M57.75,246.53a6,6,0,0,1,1.55.22,1.38,1.38,0,0,0-1.52-1.52,6.7,6.7,0,0,0-1.87.3c-.26.09-.42-.11-.46-.35l-.17-.91a.37.37,0,0,1,.26-.49,8,8,0,0,1,2.36-.4c2.35,0,3.45,1.31,3.45,3.51v4.45a.38.38,0,0,1-.42.37,1.19,1.19,0,0,1-1.21-.83,3.56,3.56,0,0,1-2.46,1,2.57,2.57,0,0,1-2.73-2.77C54.53,247.63,55.7,246.53,57.75,246.53Zm0,3.67a1.72,1.72,0,0,0,1.45-.86v-1.19a3.26,3.26,0,0,0-1.19-.24c-.93,0-1.43.44-1.43,1.15A1.06,1.06,0,0,0,57.8,250.2Z" fill="#0071de"/></g><g id="Lansing_MI" data-name="Lansing, MI"><path d="M23.75,260.28A.24.24,0,0,1,24,260h.5a.25.25,0,0,1,.25.24v8h3.74a.24.24,0,0,1,.25.24v.38a.25.25,0,0,1-.25.25H24a.25.25,0,0,1-.25-.25Z" fill="#0071de"/><path d="M31.93,265.33a5.27,5.27,0,0,1,1.28.19c0-1.1-.52-1.65-1.37-1.65a3.6,3.6,0,0,0-1.39.35c-.16.07-.24,0-.29-.15l-.13-.35c-.05-.19,0-.26.18-.33a3.89,3.89,0,0,1,1.68-.39c1.53,0,2.25.91,2.25,2.52V269a.22.22,0,0,1-.24.23c-.39,0-.59-.3-.63-.7a2.65,2.65,0,0,1-1.89.79,1.82,1.82,0,0,1-1.86-2C29.52,266.17,30.38,265.33,31.93,265.33Zm-.38,3.08a2.09,2.09,0,0,0,1.65-.81v-1.22a3.11,3.11,0,0,0-1.27-.23c-.83,0-1.46.4-1.46,1.17A1,1,0,0,0,31.55,268.41Z" fill="#0071de"/><path d="M35.94,263.31a.22.22,0,0,1,.24-.23c.37,0,.58.29.62.67a3.15,3.15,0,0,1,2-.75c1.75,0,2.18,1.13,2.18,2.68v3.17a.3.3,0,0,1-.29.29h-.39a.29.29,0,0,1-.29-.29v-3.3c0-1.14-.39-1.68-1.27-1.68a2.65,2.65,0,0,0-1.85.83v4.15a.3.3,0,0,1-.28.29h-.39a.29.29,0,0,1-.29-.29Z" fill="#0071de"/><path d="M42.43,268.55a.22.22,0,0,1,0-.26l.18-.34a.21.21,0,0,1,.35-.07,2.51,2.51,0,0,0,1.5.53c.61,0,1-.29,1-.75s-.47-.81-1.34-1.24-1.7-.82-1.7-1.85A1.65,1.65,0,0,1,44.26,263a3.16,3.16,0,0,1,1.72.47.27.27,0,0,1,.06.4l-.12.25a.29.29,0,0,1-.42.1,2.44,2.44,0,0,0-1.24-.35c-.66,0-.88.38-.88.67,0,.53.42.72,1.14,1.06,1,.48,1.94.87,1.94,2a1.84,1.84,0,0,1-2,1.72A2.93,2.93,0,0,1,42.43,268.55Z" fill="#0071de"/><path d="M47.57,260.88a.71.71,0,0,1,.7-.73.72.72,0,1,1,0,1.43A.7.7,0,0,1,47.57,260.88Zm.25,2.54a.3.3,0,0,1,.28-.29h.39a.31.31,0,0,1,.29.29v5.43a.3.3,0,0,1-.29.29H48.1a.29.29,0,0,1-.28-.29Z" fill="#0071de"/><path d="M50.62,263.31a.22.22,0,0,1,.24-.23c.37,0,.58.29.62.67a3.16,3.16,0,0,1,2-.75c1.74,0,2.17,1.13,2.17,2.68v3.17a.3.3,0,0,1-.29.29H55a.29.29,0,0,1-.29-.29v-3.3c0-1.14-.39-1.68-1.27-1.68a2.65,2.65,0,0,0-1.85.83v4.15a.3.3,0,0,1-.28.29h-.39a.29.29,0,0,1-.29-.29Z" fill="#0071de"/><path d="M62.57,269.18a2.49,2.49,0,0,1-2.63,2.8,3.35,3.35,0,0,1-2.09-.78.29.29,0,0,1-.07-.35l.26-.37c.09-.15.25-.15.39,0a2.37,2.37,0,0,0,1.51.64c1,0,1.68-.52,1.68-1.92v-.43A3.06,3.06,0,1,1,59.91,263a3.08,3.08,0,0,1,1.81.62.61.61,0,0,1,.61-.54.22.22,0,0,1,.24.23Zm-2.49-.78a2.91,2.91,0,0,0,1.52-.5v-3.29a2.23,2.23,0,0,0-1.58-.73,2.06,2.06,0,0,0-1.94,2.24A2.11,2.11,0,0,0,60.08,268.4Z" fill="#0071de"/><path d="M65,267.71c.64,0,1,.63,1,1.43a2.2,2.2,0,0,1-.78,1.78.14.14,0,0,1-.21,0l-.22-.21a.15.15,0,0,1,0-.23,1.54,1.54,0,0,0,.59-1.16.82.82,0,0,0,0-.3,1,1,0,0,1-.43.12.63.63,0,0,1-.63-.64A.71.71,0,0,1,65,267.71Z" fill="#0071de"/><path d="M71.86,260.09a.23.23,0,0,1,.23-.18h.21a.24.24,0,0,1,.22.14l2.58,7.16h.06l2.54-7.16a.24.24,0,0,1,.22-.14h.2a.25.25,0,0,1,.24.18L80,268.83c0,.18,0,.31-.24.31h-.52a.26.26,0,0,1-.23-.18l-1.16-6.7h0l-2.39,6.86a.28.28,0,0,1-.22.15H75a.27.27,0,0,1-.22-.15l-2.42-6.86h0L71.17,269a.25.25,0,0,1-.23.18h-.52c-.2,0-.28-.13-.24-.31Z" fill="#0071de"/><path d="M81.76,260.28A.25.25,0,0,1,82,260h.52a.24.24,0,0,1,.24.24v8.61a.25.25,0,0,1-.24.25H82a.26.26,0,0,1-.25-.25Z" fill="#0071de"/></g><g id="Layer_19" data-name="Layer 19"><polygon points="191.25 237.11 189.24 242.38 183.6 242.66 188 246.2 186.52 251.65 191.25 248.56 195.97 251.65 194.5 246.2 198.89 242.66 193.25 242.38 191.25 237.11" fill="#ffc220"/><polygon points="209.18 237.11 207.17 242.38 201.53 242.66 205.93 246.2 204.45 251.65 209.18 248.56 213.9 251.65 212.42 246.2 216.82 242.66 211.18 242.38 209.18 237.11" fill="#ffc220"/><polygon points="227.1 237.11 225.1 242.38 219.46 242.66 223.86 246.2 222.38 251.65 227.1 248.56 231.83 251.65 230.35 246.2 234.75 242.66 229.11 242.38 227.1 237.11" fill="#ffc220"/><polygon points="245.03 237.11 243.03 242.38 237.39 242.66 241.78 246.2 240.31 251.65 245.03 248.56 249.76 251.65 248.28 246.2 252.68 242.66 247.04 242.38 245.03 237.11" fill="#ffc220"/><polygon points="262.96 237.11 260.95 242.38 255.32 242.66 259.71 246.2 258.24 251.65 262.96 248.56 267.69 251.65 266.21 246.2 270.6 242.66 264.97 242.38 262.96 237.11" fill="#ffc220"/></g></g><g id="rect"><rect width="300" height="600" fill="none"/></g></g></g></svg>