<svg xmlns="http://www.w3.org/2000/svg" width="300" height="600" viewBox="0 0 300 600">
  <g>
    <rect width="300" height="600" fill="none"/>
    <g>
      <path d="M77.06,97.08a.48.48,0,0,1,.48-.48H87.71a.48.48,0,0,1,.47.48v2a.47.47,0,0,1-.47.47h-7.4v4.7h6.17a.49.49,0,0,1,.48.47v2a.5.5,0,0,1-.48.48H80.31v6.32a.5.5,0,0,1-.48.48H77.54a.48.48,0,0,1-.48-.48Z" fill="#091b43"/>
      <path d="M89.34,103a.54.54,0,0,1,.6-.53A1.76,1.76,0,0,1,91.76,104,4,4,0,0,1,95,102.3c1.38,0,2.5.38,2.18,1.13l-.75,1.69a.49.49,0,0,1-.68.26,2.21,2.21,0,0,0-1.07-.23,2.51,2.51,0,0,0-2.2,1.2v7.2c0,.42-.27.55-.65.55H89.89a.57.57,0,0,1-.55-.55Z" fill="#091b43"/>
      <path d="M103.58,102.3a5.17,5.17,0,0,1,5.3,5.35,6.44,6.44,0,0,1,0,.75.58.58,0,0,1-.55.52h-7.39a2.76,2.76,0,0,0,2.87,2.68,3.83,3.83,0,0,0,2.47-.85c.28-.23.58-.25.75,0l1,1.3a.49.49,0,0,1,0,.75,6.53,6.53,0,0,1-4.3,1.57,6,6,0,0,1,0-12.07Zm2.15,4.57a2.1,2.1,0,0,0-2.22-2,2.29,2.29,0,0,0-2.45,2Z" fill="#091b43"/>
      <path d="M116.11,102.3a5.17,5.17,0,0,1,5.3,5.35c0,.17,0,.57,0,.75a.59.59,0,0,1-.55.52h-7.4a2.77,2.77,0,0,0,2.87,2.68,3.88,3.88,0,0,0,2.48-.85c.27-.23.57-.25.75,0l1,1.3a.48.48,0,0,1,0,.75,6.51,6.51,0,0,1-4.3,1.57,6,6,0,0,1,0-12.07Zm2.15,4.57a2.11,2.11,0,0,0-2.23-2,2.29,2.29,0,0,0-2.45,2Z" fill="#091b43"/>
      <path d="M128.91,113.32a.5.5,0,0,1-.15-.62l.75-1.5a.43.43,0,0,1,.67-.2,4.73,4.73,0,0,0,2.55.75c.88,0,1.28-.33,1.28-.83s-.65-1-2.18-1.6c-2.22-.85-3.22-1.9-3.22-3.65s1.32-3.37,4.15-3.37a6.25,6.25,0,0,1,3.42.85.65.65,0,0,1,.25.8l-.65,1.32a.56.56,0,0,1-.72.23,5.52,5.52,0,0,0-2.3-.58c-.78,0-1.1.38-1.1.75,0,.53.57.8,1.65,1.25,2.22.9,3.82,1.7,3.82,4,0,1.83-1.55,3.45-4.45,3.45A6.46,6.46,0,0,1,128.91,113.32Z" fill="#091b43"/>
      <path d="M139.33,97.15a.6.6,0,0,1,.55-.55h2a.58.58,0,0,1,.55.55v6.13a4.46,4.46,0,0,1,2.95-1c3.67,0,4.67,2.55,4.67,5.45v5.8a.57.57,0,0,1-.55.55h-2a.55.55,0,0,1-.55-.55v-5.83c0-1.6-.73-2.57-2.1-2.57a2.38,2.38,0,0,0-2.4,2v6.38c0,.32-.15.55-.6.55h-2a.58.58,0,0,1-.55-.55Z" fill="#091b43"/>
      <path d="M152.43,98.58a2,2,0,0,1,4,0,2,2,0,1,1-4,0Zm.45,4.52a.56.56,0,0,1,.55-.55h2a.56.56,0,0,1,.55.55v10.45a.58.58,0,0,1-.55.55h-2a.58.58,0,0,1-.55-.55Z" fill="#091b43"/>
      <path d="M164.86,114.37a8.67,8.67,0,0,1-2.78-.47v5.6a.59.59,0,0,1-.55.55h-2a.58.58,0,0,1-.55-.55V103a.54.54,0,0,1,.6-.53,1.72,1.72,0,0,1,1.8,1.48,5,5,0,0,1,3.7-1.63c3.15,0,5.52,2.55,5.52,6S168.31,114.37,164.86,114.37Zm-2.78-3.5a4.57,4.57,0,0,0,2.4.65,2.92,2.92,0,0,0,2.88-3.17c0-1.63-.93-3.2-2.73-3.2a2.65,2.65,0,0,0-2.55,1.6Z" fill="#091b43"/>
      <path d="M178.76,114.37a8.67,8.67,0,0,1-2.78-.47v5.6a.59.59,0,0,1-.55.55h-2a.58.58,0,0,1-.55-.55V103a.54.54,0,0,1,.6-.53,1.72,1.72,0,0,1,1.8,1.48,5,5,0,0,1,3.7-1.63c3.15,0,5.52,2.55,5.52,6S182.21,114.37,178.76,114.37Zm-2.78-3.5a4.57,4.57,0,0,0,2.4.65,2.92,2.92,0,0,0,2.88-3.17c0-1.63-.93-3.2-2.73-3.2a2.65,2.65,0,0,0-2.55,1.6Z" fill="#091b43"/>
      <path d="M186.31,98.58a2,2,0,0,1,4,0,2,2,0,1,1-4,0Zm.45,4.52a.55.55,0,0,1,.55-.55h2a.55.55,0,0,1,.55.55v10.45a.57.57,0,0,1-.55.55h-2a.57.57,0,0,1-.55-.55Z" fill="#091b43"/>
      <path d="M192.83,103a.54.54,0,0,1,.6-.53,1.72,1.72,0,0,1,1.8,1.5A4.77,4.77,0,0,1,199,102.3c3.67,0,4.62,2.47,4.62,5.27v6a.57.57,0,0,1-.55.55h-2a.55.55,0,0,1-.55-.55v-6c0-1.5-.6-2.42-2-2.42A2.54,2.54,0,0,0,196,107v6.6c0,.42-.18.55-.73.55h-1.85a.58.58,0,0,1-.55-.55Z" fill="#091b43"/>
      <path d="M211.58,119.82a7.6,7.6,0,0,1-4.15-1.3.54.54,0,0,1-.12-.65l.75-1.62a.46.46,0,0,1,.67-.15,5.81,5.81,0,0,0,2.75.87c1.78,0,2.73-.6,2.73-2.75v-.32a8.67,8.67,0,0,1-2.78.47c-3.45,0-5.72-2.65-5.72-6s2.37-6,5.52-6a5,5,0,0,1,3.68,1.63,1.74,1.74,0,0,1,1.82-1.48.54.54,0,0,1,.6.53v11.24C217.33,118,214.73,119.82,211.58,119.82Zm2.63-13.07a2.65,2.65,0,0,0-2.55-1.6c-1.8,0-2.73,1.57-2.73,3.2a2.92,2.92,0,0,0,2.88,3.17,4.57,4.57,0,0,0,2.4-.65Z" fill="#091b43"/>
      <path d="M221.86,110.22c1.25,0,2.27,1,2.27,3A5.69,5.69,0,0,1,222,117.7c-.2.2-.35.1-.53-.08l-.62-.6c-.18-.2-.05-.37.12-.55a4,4,0,0,0,1.4-2.4,1.23,1.23,0,0,0-.07-.47,1.58,1.58,0,0,1-.85.25,1.6,1.6,0,0,1-1.58-1.78A1.87,1.87,0,0,1,221.86,110.22Z" fill="#091b43"/>
      <path d="M49.39,129.48A.54.54,0,0,1,50,129a1.72,1.72,0,0,1,1.8,1.5,4.77,4.77,0,0,1,3.73-1.65c3.67,0,4.62,2.47,4.62,5.27v6a.57.57,0,0,1-.55.55h-2a.55.55,0,0,1-.55-.55v-6c0-1.5-.6-2.42-2-2.42a2.54,2.54,0,0,0-2.5,1.8v6.6c0,.42-.18.55-.73.55H49.94a.58.58,0,0,1-.55-.55Z" fill="#091b43"/>
      <path d="M68.17,128.8a6,6,0,1,1-5.9,6A6,6,0,0,1,68.17,128.8Zm0,9.22a3.13,3.13,0,0,0,3-3.22,3,3,0,1,0-3,3.22Z" fill="#091b43"/>
      <path d="M87.27,128.8a6,6,0,1,1-5.9,6A6,6,0,0,1,87.27,128.8Zm0,9.22a3.13,3.13,0,0,0,3-3.22,3,3,0,1,0-3,3.22Z" fill="#091b43"/>
      <path d="M95.42,129.48A.54.54,0,0,1,96,129a1.76,1.76,0,0,1,1.82,1.57,4.06,4.06,0,0,1,3.23-1.72c1.37,0,2.5.38,2.17,1.13l-.75,1.69a.48.48,0,0,1-.67.26,2.25,2.25,0,0,0-1.08-.23,2.51,2.51,0,0,0-2.2,1.2v7.2c0,.42-.27.55-.65.55H96a.57.57,0,0,1-.55-.55Z" fill="#091b43"/>
      <path d="M109.57,128.8a8.5,8.5,0,0,1,2.77.48v-5.63a.6.6,0,0,1,.55-.55h2a.58.58,0,0,1,.55.55v16.52a.54.54,0,0,1-.6.53,1.7,1.7,0,0,1-1.8-1.45,5,5,0,0,1-3.7,1.62c-3.15,0-5.53-2.55-5.53-6.05A5.68,5.68,0,0,1,109.57,128.8Zm2.77,3.5a4.57,4.57,0,0,0-2.4-.65,2.91,2.91,0,0,0-2.87,3.17c0,1.63.92,3.2,2.72,3.2a2.65,2.65,0,0,0,2.55-1.6Z" fill="#091b43"/>
      <path d="M123.54,128.8a5.17,5.17,0,0,1,5.3,5.35,6.44,6.44,0,0,1-.05.75.58.58,0,0,1-.55.52h-7.4a2.78,2.78,0,0,0,2.88,2.68,3.83,3.83,0,0,0,2.47-.85c.28-.23.58-.25.75,0l1,1.3a.49.49,0,0,1,0,.75,6.53,6.53,0,0,1-4.3,1.57,6,6,0,0,1,0-12.07Zm2.15,4.57a2.1,2.1,0,0,0-2.22-2,2.29,2.29,0,0,0-2.45,2Z" fill="#091b43"/>
      <path d="M130.94,129.48a.54.54,0,0,1,.6-.53,1.77,1.77,0,0,1,1.83,1.57,4,4,0,0,1,3.22-1.72c1.38,0,2.5.38,2.18,1.13l-.75,1.69a.49.49,0,0,1-.68.26,2.21,2.21,0,0,0-1.07-.23,2.51,2.51,0,0,0-2.2,1.2v7.2c0,.42-.28.55-.65.55h-1.93a.58.58,0,0,1-.55-.55Z" fill="#091b43"/>
      <path d="M145.59,129.48a.54.54,0,0,1,.6-.53,1.73,1.73,0,0,1,1.8,1.45,4.39,4.39,0,0,1,3.48-1.6,4,4,0,0,1,3.45,1.75,4.92,4.92,0,0,1,3.72-1.75c3.7,0,4.57,2.35,4.57,5.35v5.9a.56.56,0,0,1-.57.55h-2a.55.55,0,0,1-.55-.55v-6c0-1.5-.55-2.42-2-2.42a2.21,2.21,0,0,0-2.15,1.2s.05.57.05,1.1v6.1a.58.58,0,0,1-.55.55h-2.05a.54.54,0,0,1-.55-.55v-6c0-1.5-.42-2.42-1.9-2.42a2.26,2.26,0,0,0-2.22,1.8v6.6a.58.58,0,0,1-.55.55h-2a.58.58,0,0,1-.55-.55Z" fill="#091b43"/>
      <path d="M165.59,125.08a2,2,0,0,1,2-2,2,2,0,1,1-2,2Zm.45,4.52a.56.56,0,0,1,.55-.55h2a.56.56,0,0,1,.55.55v10.45a.58.58,0,0,1-.55.55h-2a.58.58,0,0,1-.55-.55Z" fill="#091b43"/>
      <path d="M172.12,129.48a.54.54,0,0,1,.6-.53,1.72,1.72,0,0,1,1.8,1.5,4.74,4.74,0,0,1,3.72-1.65c3.67,0,4.62,2.47,4.62,5.27v6a.57.57,0,0,1-.55.55h-2a.55.55,0,0,1-.55-.55v-6c0-1.5-.6-2.42-2-2.42a2.55,2.55,0,0,0-2.5,1.8v6.6c0,.42-.17.55-.72.55h-1.85a.57.57,0,0,1-.55-.55Z" fill="#091b43"/>
      <path d="M185.24,125.08a2,2,0,0,1,2-2,2,2,0,1,1-2,2Zm.45,4.52a.56.56,0,0,1,.55-.55h2a.56.56,0,0,1,.55.55v10.45a.58.58,0,0,1-.55.55h-2a.58.58,0,0,1-.55-.55Z" fill="#091b43"/>
      <path d="M191.77,129.48a.54.54,0,0,1,.6-.53,1.74,1.74,0,0,1,1.8,1.45,4.36,4.36,0,0,1,3.47-1.6,3.94,3.94,0,0,1,3.45,1.75,4.94,4.94,0,0,1,3.72-1.75c3.7,0,4.58,2.35,4.58,5.35v5.9a.56.56,0,0,1-.58.55h-2a.55.55,0,0,1-.55-.55v-6c0-1.5-.55-2.42-2-2.42a2.21,2.21,0,0,0-2.15,1.2s0,.57,0,1.1v6.1a.57.57,0,0,1-.55.55h-2.05a.54.54,0,0,1-.55-.55v-6c0-1.5-.42-2.42-1.89-2.42a2.27,2.27,0,0,0-2.23,1.8v6.6a.57.57,0,0,1-.55.55h-2a.57.57,0,0,1-.55-.55Z" fill="#091b43"/>
      <path d="M212.09,129.6a.54.54,0,0,1,.55-.55h2a.54.54,0,0,1,.54.55v6.12c0,1.53.53,2.3,2,2.3,1.27,0,1.87-1.15,2-2.15V129.6c0-.45.15-.55.63-.55h1.95a.54.54,0,0,1,.55.55v10.57a.54.54,0,0,1-.6.53,1.69,1.69,0,0,1-1.8-1.43,5,5,0,0,1-3.5,1.6c-3.57,0-4.35-2.22-4.35-5.15Z" fill="#091b43"/>
      <path d="M225.29,129.48a.54.54,0,0,1,.6-.53,1.73,1.73,0,0,1,1.8,1.45,4.37,4.37,0,0,1,3.48-1.6,3.93,3.93,0,0,1,3.44,1.75,5,5,0,0,1,3.73-1.75c3.7,0,4.57,2.35,4.57,5.35v5.9a.56.56,0,0,1-.57.55h-2a.55.55,0,0,1-.55-.55v-6c0-1.5-.55-2.42-2-2.42a2.2,2.2,0,0,0-2.15,1.2s.05.57.05,1.1v6.1a.58.58,0,0,1-.55.55h-2a.54.54,0,0,1-.55-.55v-6c0-1.5-.43-2.42-1.9-2.42a2.25,2.25,0,0,0-2.22,1.8v6.6a.58.58,0,0,1-.55.55h-2a.58.58,0,0,1-.55-.55Z" fill="#091b43"/>
      <path d="M248.76,130.67l1.42-.9c.2-.14.48-.09.7.22s.2.53-.06.65l-1.66.73,1.66.71c.26.12.26.39.06.65s-.48.35-.7.22l-1.4-.89.14,1.48c0,.22-.18.39-.6.39s-.62-.13-.6-.39l.14-1.48-1.4.89a.52.52,0,0,1-.7-.22c-.24-.31-.18-.55.06-.65l1.66-.73-1.66-.71c-.22-.11-.3-.34-.06-.65a.52.52,0,0,1,.7-.22l1.4.9-.14-1.5c0-.25.24-.39.6-.39s.62.17.6.39Z" fill="#091b43"/>
    </g>
  </g>
</svg>
